<?xml version="1.0" standalone="no"?>
<!DOCTYPE svg PUBLIC "-//W3C//DTD SVG 20010904//EN"
 "http://www.w3.org/TR/2001/REC-SVG-20010904/DTD/svg10.dtd">
<svg version="1.0" xmlns="http://www.w3.org/2000/svg"
 width="1000.000000pt" height="667.000000pt" viewBox="0 0 1000.000000 667.000000"
 preserveAspectRatio="xMidYMid meet">

<g transform="translate(0.000000,667.000000) scale(0.100000,-0.100000)"
fill="#000000" stroke="none">
<path d="M440 6656 c0 -19 -50 -106 -61 -106 -21 0 -6 -22 24 -35 26 -11 29
-15 15 -20 -12 -5 -18 -18 -18 -36 0 -16 -4 -29 -8 -29 -8 0 -52 -71 -52 -84
0 -3 14 -6 30 -6 38 0 40 -18 3 -22 l-28 -3 33 -18 c18 -10 30 -22 27 -27 -3
-5 -1 -11 5 -15 5 -3 10 -36 10 -72 0 -57 -2 -66 -21 -70 -14 -4 -18 -10 -13
-22 15 -34 16 -83 1 -118 -15 -38 -12 -98 4 -109 15 -9 10 -64 -7 -71 -12 -4
-10 -9 13 -24 15 -11 23 -19 17 -19 -6 0 -24 -26 -40 -57 -24 -49 -104 -143
-120 -143 -6 0 -31 -21 -49 -40 -8 -8 -32 -35 -54 -59 -23 -24 -41 -47 -41
-52 0 -5 -4 -9 -10 -9 -15 0 -50 -33 -50 -47 0 -7 -11 -15 -25 -19 l-25 -6 0
-2659 0 -2659 285 0 285 0 2 138 c1 91 3 119 7 82 3 -30 9 -50 14 -43 4 6 4
18 1 27 -3 9 -1 16 5 16 6 0 11 7 11 15 0 8 5 15 10 15 6 0 10 7 10 16 0 8 5
12 11 8 6 -3 15 0 20 7 7 11 9 9 10 -6 l0 -20 8 20 c14 33 25 -65 12 -110 -6
-24 -7 -44 -1 -56 6 -10 10 -38 10 -63 0 -35 4 -46 16 -46 14 0 15 19 13 161
-3 137 -1 163 12 172 21 16 34 67 17 67 -10 0 -10 2 1 9 9 6 10 10 1 13 -6 2
-14 31 -17 66 -5 51 -10 66 -31 82 l-25 20 35 0 c19 0 60 5 91 10 31 6 70 13
86 15 17 2 35 6 41 10 5 3 10 -1 10 -9 0 -9 -7 -16 -15 -16 -26 0 -36 -38 -33
-128 3 -79 5 -88 26 -97 27 -12 30 -52 5 -70 -16 -12 -16 -14 0 -38 14 -21 17
-50 17 -147 l0 -120 4525 0 4525 0 0 1855 c0 1848 0 1855 -20 1855 -11 0 -20
-7 -20 -15 0 -9 -9 -15 -22 -15 -26 0 -111 -49 -88 -50 13 -1 13 -2 0 -8 -8
-4 -27 -15 -42 -25 -14 -10 -36 -19 -47 -20 -12 -1 -21 -8 -21 -15 0 -9 -6
-12 -16 -8 -8 3 -12 2 -9 -3 3 -5 1 -12 -5 -16 -5 -3 -12 4 -14 17 -3 13 -7
32 -9 43 -4 15 -5 14 -6 -6 -1 -24 -67 -97 -83 -92 -3 1 -12 -4 -18 -12 -7 -8
-28 -15 -46 -15 -19 0 -34 -4 -34 -10 0 -5 -11 -10 -24 -10 -34 0 -56 -10 -56
-25 0 -7 -16 -16 -35 -19 -20 -4 -33 -11 -30 -15 3 -5 -6 -12 -20 -15 -14 -4
-25 -13 -25 -21 0 -8 -3 -15 -7 -16 -27 -3 -47 -9 -56 -18 -8 -8 -7 -11 2 -11
7 0 10 -4 6 -9 -3 -6 -17 -6 -34 -1 -28 8 -29 6 -36 -28 -6 -32 -8 -35 -19
-20 -10 13 -15 15 -24 6 -9 -9 -12 -9 -12 -1 0 7 -14 10 -35 8 -25 -2 -39 2
-48 15 -7 10 -32 23 -55 29 -87 24 -172 91 -172 137 0 13 -3 24 -8 24 -4 0
-13 25 -21 56 -11 49 -31 101 -61 154 -4 8 -13 14 -19 12 -6 -1 -10 2 -9 7 2
5 -6 16 -16 24 -19 14 -19 15 10 30 17 9 59 19 95 22 35 4 100 13 144 21 81
14 256 33 554 60 116 10 167 11 176 4 9 -8 14 -7 17 1 3 10 148 19 301 19 16
0 17 73 17 1396 l0 1396 -178 -4 c-121 -2 -184 -7 -194 -15 -8 -7 -23 -10 -35
-7 -11 3 -45 -6 -77 -20 -31 -14 -61 -26 -66 -26 -6 0 -10 -4 -10 -10 0 -5
-14 -10 -31 -10 -17 0 -61 -6 -98 -14 -132 -29 -173 -36 -210 -36 -20 0 -42
-5 -49 -12 -20 -20 -169 -8 -399 33 -35 6 -63 14 -63 18 0 3 31 16 68 28 93
30 184 64 180 68 -2 2 -57 -14 -123 -36 -66 -21 -123 -39 -127 -39 -5 0 -8 18
-8 40 l0 40 -66 0 c-64 0 -66 -1 -61 -22 22 -89 40 -409 63 -1143 8 -269 21
-611 29 -760 26 -487 29 -605 16 -605 -6 0 -11 4 -11 10 0 5 -8 6 -17 3 -12
-5 -15 -2 -10 10 3 9 2 17 -3 17 -4 0 -7 16 -4 35 2 20 -1 39 -9 46 -11 10
-11 27 0 92 14 90 7 117 -31 117 -26 0 -36 -17 -36 -59 0 -15 -6 -35 -13 -45
-13 -18 -14 -18 -20 -1 -4 9 -2 35 4 58 6 22 7 43 2 46 -11 8 -15 31 -5 31 5
0 9 6 9 13 12 180 12 210 2 169 -16 -68 -19 -44 -6 43 15 96 13 112 -17 117
-26 5 -46 -18 -46 -55 0 -13 -7 -32 -16 -43 -14 -18 -15 -18 -7 6 4 14 7 40 7
58 0 17 2 32 5 32 13 0 3 455 -29 1370 -5 146 -10 309 -10 363 l0 97 -3930 0
c-3327 0 -3930 -2 -3930 -14z m8295 -152 c72 -17 83 -22 55 -24 -19 -1 -44 -4
-55 -5 -16 -2 -83 -10 -126 -14 -9 -1 -8 -26 2 -151 5 -63 11 -207 14 -320 2
-113 7 -296 10 -408 6 -190 5 -205 -12 -217 -45 -35 -50 -21 -57 195 -3 80 -9
226 -13 325 -5 99 -8 230 -8 290 0 102 2 112 23 135 19 20 23 35 22 80 -1 30
-1 76 -1 103 1 47 1 47 29 40 15 -3 68 -17 117 -29z m-1376 -421 c0 -62 5
-113 9 -113 5 0 7 79 5 175 -3 117 0 175 7 175 5 0 10 -4 10 -10 0 -16 18 -12
22 5 3 13 6 13 32 0 35 -19 36 -19 36 2 0 15 2 15 21 -3 11 -12 27 -51 36 -90
9 -38 25 -89 36 -114 11 -25 22 -70 24 -100 3 -30 6 -75 8 -100 3 -25 9 -139
14 -255 5 -115 12 -244 15 -285 15 -201 18 -264 15 -375 -3 -164 0 -224 12
-262 6 -20 7 -39 1 -49 -6 -11 0 -37 21 -87 16 -39 30 -80 32 -91 4 -29 33
-134 40 -146 3 -6 2 -10 -2 -10 -10 0 -10 -37 0 -60 3 -8 8 -40 11 -70 8 -73
13 -114 16 -120 1 -3 2 -8 2 -11 -1 -4 49 -9 111 -13 62 -3 155 -9 207 -12 80
-5 93 -4 83 8 -19 22 -158 643 -166 739 -5 58 3 86 22 75 7 -5 11 3 11 20 0
25 1 26 13 10 12 -16 13 -13 10 20 -1 22 -1 35 2 29 18 -38 225 -861 225 -896
0 -16 7 -19 49 -19 28 0 52 -4 55 -9 7 -10 -276 -10 -284 0 -10 12 -434 29
-441 17 -5 -7 -103 -5 -340 7 -567 29 -583 30 -604 43 l-20 13 20 -5 c11 -2
83 -7 160 -11 77 -3 201 -10 275 -15 203 -14 512 -20 470 -9 -19 4 -199 15
-400 24 -201 8 -427 18 -502 22 -102 4 -138 3 -138 -5 0 -7 -5 -12 -11 -12 -6
0 -9 7 -5 15 4 13 -7 15 -72 13 l-77 -1 65 -7 65 -7 -67 -3 c-38 -1 -74 -3
-80 -4 -7 -1 -17 3 -21 9 -6 7 -10 6 -14 -2 -3 -9 -24 -12 -61 -11 l-57 1 45
7 45 7 -47 1 c-27 1 -48 -2 -48 -8 0 -5 -5 -10 -11 -10 -5 0 -7 4 -4 10 4 7
-2 7 -18 1 -14 -6 -27 -8 -28 -7 -2 2 -74 7 -159 11 -85 4 -157 9 -160 12 -3
3 52 3 123 1 70 -3 127 -1 127 3 0 4 66 6 148 4 l147 -4 -180 14 c-99 7 -214
13 -256 14 -42 1 -78 3 -80 6 -4 4 11 125 42 331 12 83 5 199 -12 189 -5 -4
-9 12 -9 34 0 21 -4 41 -9 43 -6 2 -5 32 3 76 7 39 9 72 5 72 -7 0 -9 -11 -28
-140 -19 -129 -22 -140 -31 -140 -6 0 -10 6 -10 13 0 8 -7 14 -15 14 -10 0
-15 -10 -15 -29 0 -17 5 -28 14 -28 22 0 25 -56 8 -175 -15 -112 -30 -161 -23
-79 2 32 -2 50 -14 64 -12 14 -16 34 -14 82 2 56 1 63 -16 63 -23 0 -37 -46
-29 -96 3 -21 1 -40 -4 -43 -6 -4 -8 3 -5 16 5 19 3 21 -7 11 -11 -10 -11 -30
3 -110 18 -103 18 -126 0 -144 -8 -8 -13 -3 -17 18 -12 60 -20 129 -17 147 1
10 -2 15 -7 12 -6 -4 -9 9 -7 31 2 21 6 89 10 151 6 101 6 112 -9 112 -10 0
-15 -4 -11 -9 3 -6 -3 -81 -14 -168 -11 -87 -22 -171 -23 -188 -3 -29 -4 -29
-56 -26 -51 2 -53 2 -41 -18 7 -11 17 -17 22 -14 5 3 7 0 5 -8 -3 -8 -12 -12
-19 -11 -8 2 -57 6 -109 8 -252 11 -709 35 -830 44 -75 6 -159 10 -188 10 -48
0 -52 -2 -58 -27 -7 -25 -7 -54 -2 -98 1 -8 7 -15 15 -15 7 0 13 -4 13 -10 0
-5 -4 -10 -9 -10 -12 0 -51 49 -51 64 0 7 -27 11 -75 12 l-75 1 0 -247 0 -247
38 -7 c20 -3 72 -6 115 -6 55 0 77 -4 77 -12 0 -10 -29 -13 -112 -13 l-111 0
0 -270 c0 -348 -4 -281 -17 310 -6 264 -15 498 -20 520 -7 38 -8 37 -9 -22 -1
-64 -13 -87 -30 -55 -9 17 -33 696 -33 947 0 119 8 175 29 182 5 2 15 -16 20
-39 8 -33 11 19 13 237 2 184 6 258 10 215 4 -36 8 -142 9 -237 1 -174 7 -226
22 -187 6 14 8 15 8 3 1 -15 24 -30 63 -43 11 -3 22 2 29 15 9 19 8 20 -10 14
-14 -4 -21 -2 -21 7 0 8 18 19 40 25 22 5 40 6 40 2 0 -13 27 -11 51 4 17 10
22 9 30 -6 10 -16 12 -16 31 8 13 17 23 23 28 16 4 -7 16 0 34 19 27 31 46 32
46 3 0 -11 5 -9 18 8 l19 22 16 -48 c10 -27 17 -62 17 -79 0 -17 5 -38 10 -46
7 -10 9 3 8 45 -1 74 22 135 51 135 13 0 21 -7 21 -17 1 -13 5 -10 16 10 8 15
19 25 24 22 6 -4 10 51 10 144 0 89 4 152 10 156 6 4 10 -23 10 -73 0 -43 3
-106 6 -138 6 -58 7 -60 37 -62 17 -2 33 1 36 5 8 11 154 53 182 53 37 0 143
31 161 47 9 8 18 27 20 42 3 24 5 22 16 -14 7 -22 28 -125 47 -230 19 -104 43
-232 52 -284 13 -69 19 -88 24 -70 5 21 7 22 14 7 4 -10 8 -29 9 -43 2 -33 22
-40 21 -6 0 16 5 26 15 26 11 0 14 9 12 35 -2 33 -2 34 13 15 8 -11 20 -36 26
-57 9 -35 49 -74 49 -48 0 6 4 8 10 5 6 -4 7 1 3 11 -4 11 -8 13 -11 6 -2 -7
-8 -12 -13 -12 -14 0 -11 28 3 32 8 3 4 9 -10 17 -22 12 -31 41 -11 41 5 0 8
-4 4 -9 -3 -6 4 -15 15 -21 26 -14 45 -1 55 37 3 15 10 22 15 17 5 -5 1 -79
-8 -169 -14 -141 -14 -169 -1 -235 12 -62 17 -75 33 -75 13 0 22 10 28 30 10
36 1 141 -17 202 -13 42 -7 181 11 278 7 39 -11 54 -44 36 -18 -9 -20 -6 -25
45 -3 30 -11 62 -18 70 -12 14 -8 141 7 255 5 37 3 47 -10 52 -23 9 -46 -2
-46 -22 0 -9 -5 -23 -11 -31 -7 -11 -8 1 -4 41 4 34 0 96 -9 160 -9 57 -15
115 -14 129 3 25 2 25 -72 27 -41 2 -127 10 -190 18 -63 8 -130 16 -148 17
l-33 2 2 151 c1 82 4 167 7 187 4 36 5 36 25 18 25 -24 77 -43 77 -29 0 6 9 7
20 4 12 -4 31 0 45 9 15 10 26 12 30 6 10 -16 45 -12 45 5 0 16 29 10 43 -9 6
-8 10 -7 14 2 2 6 11 12 18 12 7 0 16 -6 19 -12 5 -10 7 -10 12 0 3 6 19 12
35 12 16 0 29 -5 29 -12 1 -8 6 -6 14 5 16 21 30 22 46 2 9 -11 16 -12 25 -5
9 8 15 7 18 -2 4 -10 8 -10 16 2 8 11 13 12 19 3 5 -8 29 -11 72 -8 39 2 57 0
45 -5 -18 -7 -19 -8 -2 -15 20 -8 51 1 43 13 -2 4 11 6 30 4 20 -3 38 -10 40
-17 6 -13 105 -8 114 6 8 12 72 4 107 -13 17 -9 36 -12 42 -8 6 3 25 5 41 2
29 -4 48 -32 35 -52 -3 -6 0 -7 9 -4 11 4 19 -2 25 -17 l10 -24 0 23 c1 12 -4
22 -9 22 -6 0 -4 10 5 23 8 13 14 26 13 28 -2 2 2 -1 8 -8 20 -23 24 -14 25
70 2 129 17 31 20 -130 1 -72 6 -138 11 -145 5 -7 6 24 2 75 -4 52 -2 92 3
100 14 17 25 67 15 67 -4 0 -6 19 -4 41 3 24 8 36 12 29 4 -6 10 -11 14 -11
19 3 26 0 26 -13 0 -9 13 -13 40 -13 21 0 50 -8 64 -16 18 -12 26 -13 29 -4 3
7 14 1 31 -18 15 -16 26 -25 25 -20 -6 36 10 45 35 20 13 -14 16 -13 27 6 11
21 12 21 22 4 9 -18 10 -18 23 0 13 17 14 17 14 2 0 -21 23 -22 41 -1 8 10 21
13 36 9 15 -3 23 -1 23 7 1 8 6 6 14 -5 11 -14 15 -15 19 -5 4 10 8 10 16 -2
7 -10 11 -11 11 -2 0 6 12 12 28 12 15 0 33 4 41 9 10 7 19 4 28 -7 12 -16 13
-15 19 6 5 17 11 21 26 16 10 -3 26 0 34 7 13 10 17 10 25 -2 8 -12 12 -11 24
5 7 10 18 15 24 11 6 -3 11 1 11 10 0 11 6 14 25 9 18 -4 27 -1 31 11 5 11 9
13 14 5 10 -16 88 4 105 27 14 17 14 17 15 -6 0 -16 4 -21 14 -18 12 5 14 -5
13 -49 -2 -46 0 -52 11 -37 6 9 12 26 13 37 0 21 0 21 10 1 8 -17 9 -17 6 7
-3 19 0 25 10 21 10 -4 13 10 15 58 1 54 2 49 8 -36 4 -55 8 -151 9 -212z
m-2355 19 l6 -244 -37 6 c-21 3 -63 8 -93 11 -30 4 -100 12 -155 20 -55 8
-197 26 -315 40 -118 14 -259 33 -313 42 -53 8 -112 12 -130 9 -17 -4 -54 -9
-82 -11 -125 -11 -164 -15 -176 -19 -8 -2 -26 -7 -41 -10 -26 -6 -28 -4 -28
29 0 26 4 35 18 36 16 1 16 2 0 6 -33 8 -19 40 15 34 4 0 7 4 7 10 0 8 5 7 16
-2 10 -8 18 -9 22 -3 4 6 16 11 27 12 76 5 113 5 122 -1 6 -4 16 0 23 8 7 9
23 13 38 10 14 -2 40 2 57 11 17 8 46 16 63 17 18 1 32 6 32 10 0 5 5 5 12 1
17 -11 77 -10 82 1 3 6 10 3 16 -5 9 -11 13 -12 17 -3 3 9 10 10 23 3 14 -8
19 -5 24 13 4 16 8 19 17 10 6 -6 22 -8 38 -4 47 12 66 7 63 -14 -2 -19 -2
-19 11 -3 8 10 17 14 22 10 4 -4 4 4 0 18 -7 22 -6 23 9 11 10 -9 20 -10 29
-4 19 15 110 15 119 0 5 -8 8 -6 8 7 0 13 5 16 16 12 10 -4 22 1 30 11 8 11
13 13 14 6 0 -7 7 -13 15 -13 8 0 15 -7 15 -15 0 -8 5 -15 11 -15 6 0 9 9 6
20 -3 11 -1 20 4 20 5 0 9 -5 9 -11 0 -6 9 -9 20 -6 11 3 23 1 26 -4 10 -16
24 -10 24 11 0 26 6 25 46 -5 18 -14 42 -25 53 -25 12 0 21 -6 21 -16 0 -8 5
-12 10 -9 6 3 10 2 10 -3 0 -5 11 -17 25 -26 14 -9 25 -12 25 -7 0 5 -9 13
-20 16 -11 3 -20 13 -20 21 0 17 5 17 31 4 13 -8 19 -7 19 0 0 6 -7 13 -15 16
-8 4 -15 13 -15 21 0 11 3 13 13 5 28 -24 42 4 46 93 2 48 4 85 6 83 1 -2 5
-113 9 -246z m-2805 38 c11 0 21 -9 25 -23 5 -21 72 -67 98 -67 16 0 38 -27
38 -46 0 -13 3 -15 11 -7 8 8 16 6 31 -9 11 -11 26 -17 34 -14 8 3 17 -1 20
-8 3 -8 12 -17 20 -20 8 -3 12 -1 9 4 -8 12 26 0 41 -15 6 -6 14 -20 18 -32 5
-15 14 -20 31 -18 14 1 32 -6 41 -16 19 -21 70 -49 90 -49 7 0 15 6 17 13 3 7
6 5 6 -5 1 -10 5 -18 11 -18 5 0 13 8 19 18 9 16 10 16 16 0 9 -24 20 -23 45
4 l20 22 0 -32 c0 -18 5 -32 10 -32 6 0 10 6 9 13 -3 28 1 39 14 31 6 -5 25
-9 42 -9 22 0 31 6 36 25 7 24 7 24 14 -7 4 -18 12 -33 17 -33 5 0 7 9 3 19
-3 11 -1 22 5 26 5 3 10 -3 10 -14 0 -11 5 -23 10 -26 6 -3 10 3 10 14 0 12 5
21 11 21 6 0 8 -9 4 -22 -6 -22 -6 -22 14 2 17 20 21 22 21 8 0 -25 14 -22 34
5 l17 22 -4 -26 c-3 -21 0 -25 14 -22 10 3 15 11 12 19 -3 8 0 14 6 14 6 0 11
-4 11 -10 0 -5 9 -10 20 -10 14 0 20 7 20 23 0 12 4 17 8 11 13 -20 40 -23 47
-6 5 14 7 14 15 2 7 -10 10 -11 10 -2 0 6 9 12 19 12 11 0 23 9 26 20 9 27 25
25 26 -2 0 -13 3 -17 6 -10 2 6 13 12 24 12 10 0 19 7 19 15 0 8 -4 15 -10 15
-5 0 -10 7 -10 17 0 15 1 15 18 0 15 -13 21 -14 31 -4 11 10 12 7 7 -15 -4
-17 -2 -28 4 -28 5 0 10 15 11 33 0 31 0 32 11 7 9 -23 11 -24 17 -6 6 15 10
16 16 7 6 -11 9 -11 16 0 6 10 9 3 10 -21 1 -32 1 -33 8 -10 5 14 22 40 40 57
l31 31 2 119 c1 117 1 117 8 38 3 -44 8 -222 9 -395 2 -173 7 -378 11 -455 5
-108 7 -55 8 238 2 265 5 377 13 377 13 0 66 -37 94 -65 81 -82 100 -93 179
-100 61 -6 76 -11 76 -24 0 -9 5 -126 11 -260 8 -211 12 -246 27 -257 15 -11
17 -28 14 -126 -2 -62 -5 -550 -7 -1084 -1 -534 -6 -985 -10 -1002 -3 -18 -10
-32 -14 -32 -4 0 -32 -15 -63 -34 -31 -18 -81 -44 -112 -56 -31 -13 -56 -27
-56 -30 0 -4 -18 -7 -40 -8 -34 -2 -40 1 -38 16 2 11 -4 18 -19 20 -27 4 -20
30 11 42 17 7 18 9 3 9 -21 1 -45 53 -26 60 8 2 8 5 -1 11 -14 9 -28 372 -30
805 -1 140 -5 241 -10 230 -4 -11 -5 -303 -3 -650 3 -346 3 -628 0 -625 -3 3
-7 62 -9 132 -2 69 -6 124 -10 121 -5 -2 -8 3 -8 12 0 9 5 13 10 10 6 -3 10
-1 10 4 0 6 -6 11 -12 11 -33 1 -63 81 -48 130 3 8 -2 14 -10 15 -8 0 -16 9
-18 19 -3 14 0 17 12 13 12 -5 16 0 16 16 0 18 -2 19 -10 7 -10 -15 -14 -8
-11 22 1 10 -7 18 -21 20 -15 2 -22 9 -22 21 1 9 -2 17 -7 17 -5 0 -9 12 -10
28 0 15 -3 21 -6 15 -7 -18 -23 -16 -23 3 0 8 -4 12 -10 9 -5 -3 -10 -2 -10 4
0 5 6 12 13 14 9 4 9 6 0 6 -6 1 -15 -4 -18 -9 -10 -16 -25 -12 -25 6 0 10 -6
14 -14 11 -16 -6 -46 22 -46 43 0 7 -3 10 -7 7 -3 -4 -12 -2 -19 3 -6 6 -16
10 -20 8 -5 -1 -18 1 -30 5 -12 4 -32 4 -44 -1 -15 -5 -35 -5 -53 2 -23 9 -31
8 -35 -2 -3 -10 -7 -10 -18 -1 -10 8 -18 8 -26 1 -7 -6 -24 -10 -38 -10 -14 1
-40 -2 -57 -6 -24 -4 -33 -3 -33 6 0 10 -2 10 -8 1 -4 -7 -28 -14 -52 -17 -24
-2 -48 -10 -54 -18 -6 -7 -19 -12 -28 -10 -10 2 -18 -2 -18 -8 0 -6 -4 -8 -10
-5 -6 3 -7 -1 -4 -9 7 -18 -7 -21 -23 -5 -8 8 -13 5 -18 -10 -4 -14 -15 -21
-30 -21 -13 0 -30 -7 -39 -15 -8 -8 -20 -15 -26 -15 -20 0 -4 -25 18 -28 12
-2 22 -8 22 -13 0 -5 5 -9 11 -9 6 0 9 6 6 13 -3 8 -1 20 4 28 5 9 7 1 6 -23
-2 -24 1 -39 10 -42 8 -3 13 2 13 15 0 11 5 19 11 17 6 -2 10 -7 10 -11 -1 -4
-1 -23 -1 -42 0 -19 -5 -35 -11 -35 -6 0 -8 9 -4 20 7 22 -2 24 -45 10 -24 -8
-24 -8 -2 -9 15 -1 22 -7 22 -21 0 -13 7 -20 20 -20 11 0 20 -5 20 -11 0 -6
-8 -8 -19 -4 -23 7 -38 -10 -16 -19 19 -7 20 -26 1 -26 -8 0 -16 -3 -19 -7 -2
-5 -2 -3 -1 4 2 7 -1 15 -7 18 -5 4 -7 11 -4 16 4 5 1 9 -4 9 -6 0 -11 -12
-11 -26 0 -14 -4 -23 -10 -19 -5 3 -10 13 -10 21 0 9 -7 22 -15 30 -17 17 -20
34 -6 34 11 0 6 39 -5 49 -4 3 -4 -2 -1 -11 3 -10 2 -20 -3 -23 -6 -4 -10 -22
-10 -42 0 -27 -3 -34 -15 -30 -8 4 -17 2 -20 -3 -4 -6 -14 -6 -27 1 -15 8 -19
8 -14 0 10 -16 -10 -13 -28 4 -19 19 -27 19 -20 1 3 -8 13 -17 22 -20 10 -3
-3 -3 -28 -1 -40 4 -42 4 -15 -5 17 -6 42 -8 56 -5 18 4 28 1 32 -9 8 -20 -8
-20 -94 -2 -69 14 -106 13 -149 -7 -47 -21 -110 -79 -131 -119 -11 -22 -22
-38 -23 -36 -8 8 -16 2853 -9 3078 5 140 9 225 11 188 2 -58 6 -68 21 -68z
m-636 -71 c60 -16 50 -34 -26 -43 -84 -10 -185 20 -147 44 20 13 126 12 173
-1z m1004 -151 c-3 -8 -6 -5 -6 6 -1 11 2 17 5 13 3 -3 4 -12 1 -19z m6670
-70 c-3 -8 -6 -5 -6 6 -1 11 2 17 5 13 3 -3 4 -12 1 -19z m-3908 -60 c-2 -2
-20 -18 -40 -36 -23 -21 -41 -30 -52 -26 -27 10 -20 24 11 24 18 0 37 9 51 26
12 14 25 23 28 20 4 -3 4 -7 2 -8z m-119 -39 c0 -6 -24 -19 -36 -19 -2 0 -4 6
-4 14 0 9 9 14 20 13 11 -1 20 -4 20 -8z m21 -33 c11 6 12 -6 1 -23 -8 -13
-85 -8 -90 6 -2 5 -16 7 -33 4 -16 -2 -29 0 -29 6 0 12 133 20 138 8 2 -4 8
-5 13 -1z m-711 -111 c0 -10 -11 -15 -35 -15 -54 0 -43 27 13 29 13 1 22 -5
22 -14z m45 -8 c0 -26 -20 -25 -23 2 -3 16 1 22 10 19 7 -3 13 -12 13 -21z
m735 -37 c0 -5 -4 -10 -10 -10 -5 0 -10 5 -10 10 0 6 5 10 10 10 6 0 10 -4 10
-10z m-3500 -65 c4 3 11 -6 14 -20 5 -19 13 -25 35 -25 18 0 34 -8 43 -22 11
-16 25 -22 51 -22 22 0 39 -6 42 -14 3 -7 9 -11 14 -7 5 3 21 -5 35 -18 42
-39 65 -177 62 -367 -2 -109 2 -173 12 -215 11 -45 12 -85 7 -160 -5 -55 -9
-140 -11 -190 -3 -112 -23 -401 -29 -435 -3 -14 -8 -36 -11 -50 -2 -14 -7 -41
-9 -60 -2 -19 -6 -64 -10 -100 -4 -36 -11 -69 -16 -74 -5 -6 -9 -19 -9 -30 0
-12 -7 -30 -15 -40 -8 -11 -12 -28 -9 -38 3 -11 0 -25 -6 -33 -12 -14 -1 -85
20 -140 17 -43 18 -54 5 -91 -10 -31 -20 -42 -49 -51 -20 -7 -51 -26 -69 -43
-30 -28 -45 -34 -73 -31 -6 1 -17 -6 -24 -14 -10 -13 -10 -19 3 -33 13 -15 14
-21 4 -31 -10 -11 -8 -11 11 -1 22 11 23 10 13 -9 -9 -16 -7 -24 14 -45 14
-14 25 -30 25 -36 0 -5 5 -10 10 -10 16 0 51 -40 45 -50 -8 -14 -35 -13 -35 1
0 6 7 9 14 6 11 -4 13 -1 9 10 -5 14 -9 13 -24 -6 -13 -16 -25 -21 -39 -16
-11 3 -19 9 -18 13 1 4 -8 26 -20 49 -12 23 -22 53 -22 67 0 14 -4 28 -10 31
-12 7 -14 2054 -3 2271 5 76 9 124 11 106 2 -18 7 -30 12 -27z m6270 -38 c0
-20 -25 1 -28 24 -2 23 -2 23 13 5 8 -11 15 -24 15 -29z m-188 -30 l-31 -32
35 -150 c19 -82 33 -158 32 -169 -4 -25 -78 262 -78 301 0 19 10 36 32 55 44
37 49 35 10 -5z m763 -116 c3 -5 1 -12 -5 -16 -5 -3 -10 1 -10 9 0 18 6 21 15
7z m-728 -23 c-3 -8 -6 -5 -6 6 -1 11 2 17 5 13 3 -3 4 -12 1 -19z m53 -17 c0
-5 -6 -14 -14 -20 -12 -10 -13 -8 -9 8 5 21 23 30 23 12z m273 -162 c-8 -8
-13 -7 -18 2 -5 8 -4 10 3 5 7 -4 12 -2 12 5 0 7 3 9 7 6 4 -4 2 -12 -4 -18z
m56 -304 l0 -20 -9 20 c-5 11 -9 29 -9 40 l0 20 9 -20 c5 -11 9 -29 9 -40z
m-7000 -9 c13 -9 15 -56 2 -56 -21 0 -41 13 -41 26 0 15 -39 28 -67 22 -10 -2
-17 -10 -15 -16 1 -7 -7 -12 -18 -12 -14 0 -20 7 -20 23 0 22 3 23 74 21 40 0
78 -4 85 -8z m64 -114 c11 -1 97 -113 97 -126 1 -6 7 1 16 16 l14 27 38 -25
c20 -13 45 -30 55 -36 9 -7 17 -23 17 -37 0 -22 -3 -23 -37 -17 -21 3 -73 6
-115 6 l-78 0 0 38 c0 45 -26 62 -110 71 -38 4 -56 11 -57 21 -4 22 12 43 34
45 10 1 31 8 48 17 18 10 37 13 50 8 11 -4 24 -8 28 -8z m-173 -42 c0 -20 -5
-30 -15 -30 -8 0 -15 6 -15 14 0 8 -3 21 -6 30 -4 12 0 16 15 16 17 0 21 -6
21 -30z m110 -119 c0 -13 -8 -21 -22 -23 -14 -2 -25 -13 -29 -28 -6 -20 -7
-17 -8 17 -1 41 6 51 42 52 10 1 17 -6 17 -18z m-70 -31 c0 -20 -5 -30 -15
-30 -10 0 -15 10 -15 30 0 20 5 30 15 30 10 0 15 -10 15 -30z m-151 -72 l-2
-93 -8 84 c-7 77 -6 101 7 101 2 0 3 -42 3 -92z m-290 10 c-1 -52 -3 -66 -9
-48 -15 47 -11 120 7 120 2 0 3 -33 2 -72z m7610 18 c-11 -12 -14 -8 -24 24
l-7 25 20 -20 c11 -12 16 -24 11 -29z m-7742 -8 c-3 -7 -5 -2 -5 12 0 14 2 19
5 13 2 -7 2 -19 0 -25z m130 -160 c-3 -7 -5 -2 -5 12 0 14 2 19 5 13 2 -7 2
-19 0 -25z m3853 -18 l85 -7 -110 -3 c-81 -2 -101 -5 -75 -10 31 -7 28 -8 -20
-7 -77 1 -105 10 -60 18 l35 6 -37 2 c-21 0 -38 5 -38 9 0 8 75 6 220 -8z
m1180 10 c0 -5 -4 -10 -10 -10 -5 0 -10 5 -10 10 0 6 5 10 10 10 6 0 10 -4 10
-10z m-1430 -62 c0 -16 -3 -19 -11 -11 -6 6 -8 16 -5 22 11 17 16 13 16 -11z
m1298 -15 c-3 -26 -5 -27 -50 -24 -38 2 -48 -1 -48 -13 0 -9 -4 -16 -10 -16
-15 0 -12 19 5 37 10 10 28 14 50 11 29 -3 35 -1 35 14 0 10 5 18 11 18 6 0 9
-12 7 -27z m-703 7 c26 -6 24 -7 -17 -7 -27 0 -48 3 -48 8 0 10 22 10 65 -1z
m-4741 -6 c37 -14 11 -24 -63 -24 -74 0 -100 7 -84 24 8 8 126 8 147 0z m5211
-14 c50 -6 19 -7 -105 -4 -96 3 -178 9 -182 12 -9 9 197 3 287 -8z m402 4 c-3
-3 -12 -4 -19 -1 -8 3 -5 6 6 6 11 1 17 -2 13 -5z m-4608 -115 c1 -40 -5 -50
-25 -42 -18 7 -20 99 -1 106 15 5 25 -18 26 -64z m7316 34 c-31 -22 -54 -16
-25 6 13 11 29 17 34 14 5 -3 1 -12 -9 -20z m-1897 10 c-10 -2 -26 -2 -35 0
-10 3 -2 5 17 5 19 0 27 -2 18 -5z m-1927 -14 c32 -7 54 -8 58 -2 3 6 15 10
26 10 16 1 379 -21 470 -28 14 -1 11 -4 -10 -9 l-30 -8 28 -1 c47 -2 104 -42
90 -65 -3 -4 1 -12 8 -17 10 -6 11 -9 2 -9 -18 0 -16 -45 2 -60 32 -26 17 -38
-47 -38 -35 -1 -80 -1 -100 -1 l-37 -1 20 -46 c28 -66 17 -65 -17 1 -37 74
-80 121 -129 141 -35 14 -38 14 -26 0 11 -13 9 -14 -18 -6 -103 32 -95 31 -76
10 10 -11 21 -17 25 -15 4 3 13 -2 20 -10 7 -8 9 -15 5 -15 -4 0 1 -12 10 -27
13 -20 3 -14 -33 20 -28 26 -55 47 -59 47 -4 0 1 -8 12 -18 12 -9 27 -26 35
-36 14 -17 11 -17 -27 3 -46 23 -73 27 -73 10 0 -5 -10 -3 -22 5 -36 25 -46
18 -13 -9 34 -28 27 -33 -11 -9 -13 9 -27 14 -31 10 -3 -3 -12 -1 -20 5 -7 6
-13 9 -13 5 0 -3 -12 -1 -27 5 -26 10 -26 8 12 -33 22 -23 29 -34 15 -22 -54
43 -63 46 -29 9 20 -22 44 -56 53 -75 16 -34 16 -34 -1 -10 -30 42 -95 106
-89 88 7 -22 -12 -23 -42 -2 -12 8 -22 12 -22 7 0 -4 -5 0 -11 10 -12 21 -29
22 -55 1 -18 -15 -18 -15 3 -5 29 15 51 15 36 0 -5 -5 -24 -11 -42 -11 -27 -1
-33 -6 -43 -40 -6 -21 -14 -38 -18 -38 -17 0 -18 15 -4 43 13 24 14 31 2 38
-11 8 -11 11 1 18 8 5 19 7 25 5 6 -2 33 7 60 21 27 14 56 25 64 25 11 0 13 9
8 44 -8 52 1 96 20 96 7 0 36 -5 65 -11z m993 -40 c8 -24 9 -54 2 -99 -5 -36
-9 -95 -9 -133 0 -63 -2 -67 -21 -61 -12 4 -28 13 -37 20 -8 8 -19 14 -24 14
-5 0 -16 6 -24 14 -9 8 -23 16 -31 18 -8 2 -18 8 -23 13 -4 6 -4 -22 -1 -61 6
-68 5 -72 -15 -79 -17 -5 -32 3 -68 35 -44 41 -47 42 -97 36 l-51 -6 30 25
c17 14 34 25 39 25 5 0 6 55 3 130 -4 72 -3 130 2 130 9 0 21 -105 21 -184 0
-48 0 -48 23 -32 12 9 37 24 55 33 25 13 32 22 28 38 -2 11 -8 37 -12 59 l-7
38 44 -4 c60 -6 87 6 104 47 13 29 18 33 36 26 12 -4 27 -23 33 -42z m-186 3
c-17 -22 -30 -32 -45 -32 -14 0 -54 40 -49 49 2 3 27 4 55 3 47 -4 50 -6 39
-20z m372 19 c0 -15 -30 -244 -36 -268 -2 -13 -9 -23 -15 -23 -8 0 -9 19 -5
58 25 218 29 242 42 242 8 0 14 -4 14 -9z m84 -112 c16 13 123 41 156 40 18 0
21 -2 9 -7 -9 -4 -15 -17 -14 -30 1 -12 -4 -27 -12 -33 -7 -6 -13 -19 -13 -28
0 -9 -13 -29 -30 -44 -16 -16 -30 -24 -30 -19 0 6 -13 13 -29 17 -24 5 -31 12
-34 38 -2 18 -5 -1 -5 -40 -3 -132 -21 -77 -24 73 -3 147 4 213 10 89 2 -52 6
-64 16 -56z m206 108 c24 -1 3 -8 -65 -20 -55 -10 -108 -21 -117 -23 -14 -4
-18 1 -18 19 0 13 2 26 4 28 4 4 113 2 196 -4z m-411 -73 c6 -38 17 -100 25
-138 11 -49 12 -75 5 -89 -16 -29 -23 -14 -40 95 -13 85 -15 217 -3 205 2 -2
8 -35 13 -73z m2838 56 c1 -11 -2 -20 -6 -20 -5 0 -11 9 -14 20 -3 12 0 20 7
20 6 0 12 -9 13 -20z m-137 0 c0 -5 -5 -10 -11 -10 -5 0 -7 5 -4 10 3 6 8 10
11 10 2 0 4 -4 4 -10z m220 -11 c0 -6 -4 -7 -10 -4 -5 3 -10 11 -10 16 0 6 5
7 10 4 6 -3 10 -11 10 -16z m-2280 -56 c0 -36 -2 -64 -5 -61 -9 8 -23 101 -18
115 12 32 23 8 23 -54z m1484 49 c4 -7 -199 -5 -219 3 -5 2 40 4 102 4 61 1
114 -2 117 -7z m-651 -18 c151 -6 157 -7 158 -28 2 -19 2 -19 6 2 4 22 8 23
61 18 99 -10 257 -20 271 -17 7 1 10 -2 7 -7 -3 -5 3 -12 14 -15 17 -4 20 -14
20 -60 0 -77 -12 -104 -52 -115 l-33 -8 29 -8 28 -7 -56 -34 c-31 -19 -62 -33
-69 -31 -7 1 -9 1 -5 -1 4 -3 -9 -24 -29 -48 -20 -24 -40 -42 -45 -39 -4 3 -6
-1 -3 -8 3 -7 -6 -42 -18 -78 l-24 -65 -102 -50 c-56 -28 -106 -57 -111 -65
-6 -8 -10 -47 -10 -86 0 -83 -14 -109 -54 -102 -32 6 -37 0 -45 -66 l-6 -51
-60 3 c-33 2 -61 5 -62 6 -2 1 -7 65 -11 142 l-9 139 -2 -138 c-1 -122 -3
-138 -18 -143 -10 -3 -30 -12 -45 -20 -20 -11 -53 -14 -112 -13 -78 2 -83 4
-72 21 6 10 12 14 14 8 2 -5 17 16 33 48 36 70 51 189 27 213 -8 8 -18 21 -21
29 -4 8 -5 2 -2 -13 4 -19 2 -26 -5 -22 -5 3 -10 14 -10 23 0 32 -47 118 -79
145 l-33 27 29 0 c15 0 71 6 123 14 52 8 109 16 125 18 l30 3 6 -85 c8 -103 2
214 -7 428 l-7 153 39 -5 c21 -3 110 -8 197 -12z m774 9 c-20 -2 -52 -2 -70 0
-17 2 0 4 38 4 39 0 53 -2 32 -4z m-7392 -103 c15 -38 16 -68 11 -184 -6 -133
-16 -178 -35 -148 -11 19 -22 288 -14 369 6 57 8 63 14 38 4 -16 15 -50 24
-75z m8170 79 c41 -6 36 -7 -30 -4 -44 1 -96 7 -115 13 -30 10 -26 11 30 5 36
-3 88 -10 115 -14z m-2268 -5 c-3 -3 -12 -4 -19 -1 -8 3 -5 6 6 6 11 1 17 -2
13 -5z m-2428 -497 c0 -150 -3 -256 -8 -253 -5 3 -9 31 -10 62 0 31 -3 59 -6
62 -3 3 -5 -9 -5 -26 0 -18 -4 -32 -10 -32 -11 0 -12 2 -14 43 -1 15 2 27 7
27 5 0 7 18 3 40 -4 25 -2 40 4 40 5 0 11 -17 12 -37 l1 -38 4 33 c3 19 -3 49
-12 69 -11 23 -14 44 -9 61 4 15 8 34 10 42 3 16 11 180 15 320 2 85 3 85 9
-35 4 -66 8 -236 9 -378z m2378 456 c-3 -10 -5 -4 -5 12 0 17 2 24 5 18 2 -7
2 -21 0 -30z m1855 -145 c79 -323 208 -877 228 -973 20 -98 45 -165 62 -165 4
0 8 5 8 10 0 6 25 9 58 9 52 -2 54 -2 22 -10 -21 -5 10 -6 80 -3 72 3 111 2
105 -4 -5 -5 -76 -12 -157 -16 -140 -6 -147 -5 -153 14 -15 48 -157 612 -191
759 -3 13 -7 21 -10 18 -3 -3 2 -36 11 -74 25 -107 26 -115 16 -109 -5 3 -11
0 -14 -6 -3 -7 -4 9 -3 36 1 32 -3 51 -11 53 -7 3 -13 18 -13 35 0 25 -3 29
-20 25 -27 -7 -45 11 -59 63 -7 25 -15 54 -18 65 -5 19 -5 19 14 3 43 -39 76
-4 53 53 -14 33 -35 37 -62 12 -17 -15 -18 -14 -24 14 -4 19 -12 30 -21 29
-11 -1 -21 19 -34 64 -21 76 -22 80 -10 80 5 0 14 -12 20 -27 21 -55 -7 98
-35 190 -5 16 1 17 58 13 l63 -4 37 -154z m-8099 112 c18 -16 -42 -40 -97 -37
-60 2 -71 15 -36 40 21 14 116 12 133 -3z m4843 -73 c30 -56 7 -36 -34 31 -37
58 -38 62 -11 32 17 -19 37 -48 45 -63z m-4586 54 c0 -11 -5 -23 -10 -26 -18
-11 -50 6 -50 26 0 14 7 19 30 19 23 0 30 -5 30 -19z m50 5 c0 -3 -4 -8 -10
-11 -5 -3 -10 -1 -10 4 0 6 5 11 10 11 6 0 10 -2 10 -4z m6110 -26 c0 -5 -4
-10 -10 -10 -5 0 -10 5 -10 10 0 6 5 10 10 10 6 0 10 -4 10 -10z m1520 -78 c0
-7 -243 -132 -258 -132 -15 0 234 140 251 140 4 0 7 -3 7 -8z m-2203 -79 c-3
-10 -5 -2 -5 17 0 19 2 27 5 18 2 -10 2 -26 0 -35z m-1377 25 c0 -4 -9 -8 -20
-8 -11 0 -20 4 -20 9 0 6 9 9 20 8 11 -1 20 -5 20 -9z m60 2 c-19 -13 -30 -13
-30 0 0 6 10 10 23 10 18 0 19 -2 7 -10z m3503 -29 c-2 -12 1 -20 5 -17 4 2 8
-3 8 -12 1 -9 4 -29 8 -44 7 -24 4 -28 -39 -47 -59 -26 -67 -26 -35 -1 24 20
25 21 6 35 -19 14 -45 20 -75 16 -8 -2 -10 2 -6 10 6 9 1 10 -19 5 -37 -9 -32
0 12 24 127 67 139 69 135 31z m-8030 -51 c13 -41 13 -54 -4 -134 -18 -88 -24
-104 -35 -93 -10 10 -17 201 -10 252 6 40 10 45 21 34 7 -8 20 -34 28 -59z
m1187 55 c0 -8 -4 -15 -10 -15 -5 0 -11 -35 -13 -77 l-3 -78 -2 93 c-2 76 1
92 13 92 8 0 15 -7 15 -15z m-252 -122 l-1 -118 -7 105 c-6 96 -5 130 6 130 2
0 3 -53 2 -117z m249 35 c-2 -13 -4 -3 -4 22 0 25 2 35 4 23 2 -13 2 -33 0
-45z m4603 58 c0 -3 -4 -8 -10 -11 -5 -3 -10 -1 -10 4 0 6 5 11 10 11 6 0 10
-2 10 -4z m458 -25 c87 -1 142 -5 142 -11 0 -5 20 -10 45 -10 25 0 45 -4 45
-10 0 -5 -22 -10 -50 -10 -27 0 -50 5 -50 10 0 6 -70 10 -191 10 -124 0 -188
-3 -184 -10 10 -17 -190 -13 -204 4 -8 10 -8 16 1 23 22 17 34 18 170 12 73
-4 197 -7 276 -8z m-763 -1 c-3 -5 -11 -10 -16 -10 -6 0 -7 5 -4 10 3 6 11 10
16 10 6 0 7 -4 4 -10z m-5363 -77 c-10 -26 -10 -24 -11 22 0 42 2 46 11 28 7
-15 7 -30 0 -50z m275 -5 c-2 -13 -4 -5 -4 17 -1 22 1 32 4 23 2 -10 2 -28 0
-40z m4138 6 c27 -29 34 -54 10 -34 -13 10 -15 9 -15 -11 l0 -22 -23 21 c-13
12 -31 22 -40 22 -20 0 -22 21 -5 38 19 19 47 14 73 -14z m1204 -99 c12 -60
26 -133 32 -161 8 -44 15 -54 40 -64 23 -10 29 -19 30 -44 0 -17 3 -71 5 -119
3 -60 1 -86 -6 -82 -5 3 -10 1 -10 -4 0 -12 248 -18 495 -12 78 2 183 0 235
-5 l95 -9 -105 -6 c-58 -4 -193 -7 -300 -8 -119 -2 -187 -6 -175 -11 11 -5 72
-9 135 -9 78 -1 110 -4 100 -11 -9 -6 -113 -10 -243 -10 l-227 0 5 -22 c5 -26
35 -205 35 -213 0 -11 -28 -4 -33 8 -2 6 -10 46 -16 87 -7 41 -16 91 -21 110
-5 19 -16 73 -25 120 -8 47 -27 148 -41 225 -23 126 -45 368 -31 355 3 -3 15
-54 26 -115z m668 92 c12 -12 -1 -15 -59 -10 -32 3 -58 10 -58 15 0 11 105 6
117 -5z m1788 -7 c0 -7 -6 -15 -12 -17 -8 -3 -13 4 -13 17 0 13 5 20 13 18 6
-3 12 -11 12 -18z m-2755 -10 c0 -5 -4 -10 -10 -10 -5 0 -10 5 -10 10 0 6 5
10 10 10 6 0 10 -4 10 -10z m-940 -51 c7 -11 9 -23 6 -26 -3 -3 -8 2 -12 11
-3 9 -15 16 -26 16 -10 0 -16 5 -13 10 10 17 34 11 45 -11z m227 15 c-3 -3
-12 -4 -19 -1 -8 3 -5 6 6 6 11 1 17 -2 13 -5z m1037 -7 c6 -8 37 -22 69 -31
65 -20 74 -29 20 -20 -44 7 -113 40 -113 54 0 14 11 12 24 -3z m-334 -6 c0 -6
-4 -13 -10 -16 -5 -3 -10 1 -10 9 0 9 5 16 10 16 6 0 10 -4 10 -9z m-1153 -33
c1 -11 -3 -30 -8 -41 -16 -28 -33 -6 -24 32 8 35 30 42 32 9z m181 15 c-10 -2
-26 -2 -35 0 -10 3 -2 5 17 5 19 0 27 -2 18 -5z m272 -3 c0 -5 -4 -10 -10 -10
-5 0 -10 5 -10 10 0 6 5 10 10 10 6 0 10 -4 10 -10z m1845 0 c4 -6 -9 -10 -32
-10 -28 0 -34 3 -23 10 20 13 47 13 55 0z m-25 -79 c-1 -10 -6 -7 -15 9 -19
33 -18 50 0 26 8 -11 15 -27 15 -35z m-492 22 c-2 -14 -11 -17 -33 -14 -45 5
-54 15 -20 22 50 11 57 10 53 -8z m-1321 -19 c-3 -3 -12 -4 -19 -1 -8 3 -5 6
6 6 11 1 17 -2 13 -5z m-286 -34 c6 0 8 -4 4 -9 -7 -13 26 -30 45 -23 13 4 13
2 -1 -12 -8 -9 -22 -14 -31 -11 -18 7 -39 48 -37 73 1 16 2 15 6 0 2 -10 9
-18 14 -18z m-3503 -165 l-1 -80 -7 70 c-4 39 -8 95 -8 125 l1 55 8 -45 c4
-25 7 -81 7 -125z m4316 119 c4 -10 3 -57 0 -106 -6 -80 -9 -88 -25 -83 -11 4
-19 2 -19 -3 0 -5 -25 -22 -55 -37 -30 -16 -58 -38 -61 -48 -3 -10 -7 -17 -10
-15 -2 2 6 33 17 68 11 36 26 101 32 145 l13 80 34 6 c58 11 68 10 74 -7z
m226 -9 c0 -13 10 -34 22 -45 21 -19 23 -30 23 -123 0 -112 -12 -149 -45 -140
-10 3 -22 14 -26 25 -4 14 -13 19 -32 17 -15 -2 -32 -1 -37 2 -6 4 -23 9 -38
13 -16 4 -39 18 -52 32 -20 22 -23 35 -24 124 l-2 100 38 1 c21 1 52 5 68 9
17 4 47 8 68 9 33 1 37 -2 37 -24z m172 -52 c-2 -12 8 -72 22 -135 34 -154 65
-322 60 -327 -9 -10 -15 11 -34 122 -11 64 -29 142 -41 174 -12 32 -26 81 -32
108 -6 28 -17 56 -24 63 -20 20 -16 24 20 20 26 -2 31 -7 29 -25z m2815 -179
c39 -165 69 -376 42 -299 -14 41 -109 452 -109 471 0 9 6 14 13 12 7 -3 30
-82 54 -184z m-2109 99 c5 -43 6 -82 2 -86 -13 -15 -20 8 -27 87 -8 102 11
101 25 -1z m-3643 58 c3 -5 1 -12 -5 -16 -5 -3 -10 1 -10 9 0 18 6 21 15 7z
m5512 -13 c-3 -8 -6 -5 -6 6 -1 11 2 17 5 13 3 -3 4 -12 1 -19z m-2301 -18
c83 -32 93 -41 94 -80 1 -22 11 -55 36 -115 7 -18 6 -18 -9 -6 -9 7 -17 9 -17
4 0 -6 -38 -11 -90 -12 l-90 -2 0 68 c0 37 -3 92 -6 121 -4 28 -4 52 -1 52 3
0 41 -13 83 -30z m-3265 -3 c-10 -9 -11 -8 -5 6 3 10 9 15 12 12 3 -3 0 -11
-7 -18z m3756 -9 c-3 -7 -5 -2 -5 12 0 14 2 19 5 13 2 -7 2 -19 0 -25z m-3766
-8 c5 0 9 -12 9 -26 0 -14 -4 -23 -10 -19 -5 3 -10 2 -10 -4 0 -5 9 -13 20
-16 11 -3 20 -11 20 -16 0 -5 7 -9 15 -9 15 0 20 -12 9 -23 -3 -3 -16 5 -29
19 -26 28 -42 31 -48 7 -3 -10 -4 -5 -4 10 1 16 7 33 14 39 10 8 9 13 -2 24
-8 8 -11 22 -7 32 6 16 7 16 10 0 2 -10 8 -18 13 -18z m-975 -38 c1 -12 -3
-19 -8 -16 -4 3 -5 10 -2 16 4 6 0 15 -7 20 -12 8 -11 9 1 5 8 -2 16 -13 16
-25z m1046 14 c-16 -8 -19 -15 -11 -23 7 -7 6 -12 -6 -17 -9 -3 -18 0 -21 9
-10 25 2 40 32 42 28 1 28 1 6 -11z m38 -26 c0 -5 -4 -10 -10 -10 -5 0 -10 5
-10 10 0 6 5 10 10 10 6 0 10 -4 10 -10z m4510 6 c0 -3 -4 -8 -10 -11 -5 -3
-10 -1 -10 4 0 6 5 11 10 11 6 0 10 -2 10 -4z m-53 -12 c-3 -3 -12 -4 -19 -1
-8 3 -5 6 6 6 11 1 17 -2 13 -5z m-527 -41 c-11 -17 -11 -17 -6 0 3 10 6 24 7
30 0 9 2 9 5 0 3 -7 0 -20 -6 -30z m-2310 18 c0 -5 18 -29 40 -52 22 -23 38
-45 35 -47 -9 -10 -65 21 -80 44 -17 26 -20 64 -5 64 6 0 10 -4 10 -9z m-299
-21 c12 0 19 -7 19 -19 0 -11 4 -22 9 -25 5 -3 7 -15 4 -26 -4 -16 -14 -20
-44 -20 l-39 0 0 51 c0 43 3 50 16 45 9 -3 24 -6 35 -6z m-1273 -45 c-3 -3 -9
2 -12 12 -6 14 -5 15 5 6 7 -7 10 -15 7 -18z m-335 -45 c15 -16 23 -30 19 -30
-5 0 -21 14 -37 30 -16 17 -24 30 -19 30 6 0 23 -13 37 -30z m-633 -10 c0 -5
-11 -10 -25 -10 -14 0 -25 5 -25 10 0 6 11 10 25 10 14 0 25 -4 25 -10z m3725
-13 c1 -1 5 -14 9 -29 l6 -28 -290 0 -291 0 28 37 28 36 254 -7 c140 -3 255
-7 256 -9z m-3051 -33 c3 -8 2 -12 -4 -9 -6 3 -10 10 -10 16 0 14 7 11 14 -7z
m4366 -14 c-18 -12 -357 -12 -385 0 -12 5 64 9 190 9 139 1 205 -3 195 -9z
m-4323 -25 c42 -18 39 -31 -3 -14 -16 6 -60 11 -99 11 -46 0 -63 3 -50 8 33
14 113 11 152 -5z m-262 -34 c3 -5 1 -12 -5 -16 -5 -3 -10 1 -10 9 0 18 6 21
15 7z m-39 -27 c-8 -8 -20 -14 -27 -14 -8 0 -5 7 7 19 10 10 22 16 27 14 4 -2
1 -11 -7 -19z m369 8 c17 -11 57 -72 48 -71 -11 1 -77 79 -67 79 5 0 14 -4 19
-8z m2065 -59 c0 -28 -3 -34 -10 -23 -13 20 -13 60 0 60 6 0 10 -17 10 -37z
m-3040 -3 c0 -5 -2 -10 -4 -10 -3 0 -8 5 -11 10 -3 6 -1 10 4 10 6 0 11 -4 11
-10z m-560 -16 c0 -14 -3 -14 -15 -4 -8 7 -15 14 -15 16 0 2 7 4 15 4 8 0 15
-7 15 -16z m610 6 c0 -5 -4 -10 -10 -10 -5 0 -10 5 -10 10 0 6 5 10 10 10 6 0
10 -4 10 -10z m216 -35 c18 -14 16 -14 -16 -9 -44 8 -63 24 -29 24 14 0 34 -7
45 -15z m-208 -14 c3 -8 -1 -12 -9 -9 -7 2 -15 10 -17 17 -3 8 1 12 9 9 7 -2
15 -10 17 -17z m-386 -22 l33 -31 -40 28 c-22 16 -42 29 -44 31 -2 2 1 3 7 3
7 0 26 -14 44 -31z m3245 -50 c-4 -35 -11 -149 -17 -254 -9 -171 -22 -342 -35
-480 -5 -50 -23 -312 -27 -393 -2 -43 -11 -61 -22 -43 -4 5 -2 12 4 16 22 13
-3 25 -38 19 -33 -6 -36 -5 -24 9 9 10 10 17 2 22 -5 3 -10 1 -10 -4 0 -6 -18
-11 -40 -11 -29 0 -40 4 -40 15 0 8 5 15 12 15 6 0 0 9 -13 21 -19 16 -24 31
-24 67 0 35 -4 47 -15 47 -24 0 -60 24 -60 40 0 8 -4 15 -10 15 -5 0 -10 7
-10 15 0 18 -37 40 -42 24 -2 -7 -17 -8 -39 -4 -35 6 -46 21 -64 83 -3 12 -13
22 -20 22 -9 0 -12 -6 -9 -15 5 -11 2 -13 -10 -9 -9 3 -16 10 -16 15 0 17 -19
9 -25 -11 -5 -15 -12 -19 -26 -15 -14 5 -20 2 -18 -7 3 -27 -1 -42 -10 -33
-16 16 -101 186 -101 201 0 8 -4 14 -8 14 -13 0 -33 50 -25 62 4 7 0 9 -10 5
-10 -3 -17 -2 -17 3 0 6 4 10 8 10 4 0 8 9 8 20 0 11 -4 20 -8 20 -4 0 -8 16
-8 36 0 27 5 37 19 41 18 5 19 33 1 33 -15 0 -47 -35 -43 -47 3 -7 0 -13 -6
-13 -6 0 -11 8 -11 18 0 9 -11 27 -24 39 l-23 22 4 -23 c5 -24 -22 -60 -38
-50 -5 3 -16 -2 -25 -10 -18 -18 -34 -21 -34 -6 0 6 5 10 11 10 5 0 7 5 4 10
-3 6 -12 10 -18 10 -9 0 -11 -28 -10 -101 2 -90 1 -99 -12 -83 -13 17 -14 15
-15 -28 0 -62 -16 -70 -22 -10 -8 98 -3 432 7 434 6 2 11 -7 13 -19 3 -18 10
-23 33 -23 26 0 29 2 19 19 -7 15 -7 22 2 28 22 14 39 53 33 74 -5 15 -2 19
14 19 12 0 21 5 21 10 0 6 8 10 19 10 12 0 20 -9 24 -27 l5 -28 -18 23 c-12
14 -21 18 -25 12 -9 -15 14 -40 36 -40 11 0 19 -4 19 -10 0 -5 6 -10 14 -10 9
0 12 8 8 25 -2 14 -2 25 2 25 13 0 46 -41 40 -51 -4 -7 6 -9 27 -7 18 2 34 9
35 16 1 7 0 8 -3 2 -2 -5 -8 -10 -11 -10 -15 0 -62 48 -62 63 0 9 -10 25 -22
36 -17 16 -18 22 -7 26 18 7 24 55 7 55 -29 0 72 41 117 48 27 4 198 9 379 11
l329 3 -6 -63z m2643 51 c0 -5 -2 -10 -4 -10 -3 0 -8 5 -11 10 -3 6 -1 10 4
10 6 0 11 -4 11 -10z m-5176 -16 c5 -14 4 -15 -9 -4 -17 14 -19 20 -6 20 5 0
12 -7 15 -16z m1443 -46 c-2 -13 -4 -3 -4 22 0 25 2 35 4 23 2 -13 2 -33 0
-45z m1621 51 c114 0 179 -4 167 -9 -18 -8 -18 -9 6 -9 14 -1 29 -5 35 -10 5
-5 45 -11 89 -14 103 -5 183 -15 197 -23 7 -4 8 -2 4 4 -4 7 -1 12 8 12 11 0
16 -10 16 -34 0 -38 -24 -55 -39 -28 -7 12 -13 14 -21 6 -8 -8 -7 -14 5 -24 8
-7 15 -17 15 -22 0 -7 -4 -7 -13 0 -8 7 -17 6 -30 -3 -18 -13 -17 -14 3 -20
24 -8 21 -31 -4 -29 -9 1 -16 -2 -16 -7 0 -5 6 -9 14 -9 8 0 16 -10 18 -22 2
-18 10 -23 33 -23 23 0 31 5 33 23 2 12 -2 22 -8 22 -6 0 -8 5 -4 11 4 8 9 7
16 -2 7 -10 8 -5 4 14 -4 17 -2 27 5 27 8 0 9 -15 5 -47 -3 -27 -2 -40 2 -29
6 14 12 1 25 -50 15 -63 49 -250 60 -334 6 -45 -13 -72 -54 -77 -35 -4 -118
-30 -134 -42 -5 -5 -27 -11 -47 -14 -34 -5 -38 -3 -39 16 0 12 -3 16 -6 10 -7
-20 -27 -15 -51 11 -14 17 -17 26 -9 30 7 3 6 5 -3 5 -8 1 -21 13 -28 29 -19
42 -43 69 -49 55 -5 -15 -53 -18 -53 -4 0 5 -13 11 -30 13 -22 3 -30 0 -30
-10 0 -10 -4 -12 -12 -5 -9 6 -22 5 -38 -3 -15 -9 -19 -14 -10 -15 13 0 13 -1
0 -6 -8 -4 -21 -13 -28 -22 -10 -12 -15 -13 -18 -3 -8 17 -24 15 -24 -2 0 -8
-6 -16 -12 -19 -10 -3 -10 -7 -1 -19 11 -13 5 -14 -45 -14 -31 1 -60 6 -64 11
-4 6 -8 36 -8 68 0 32 -4 56 -8 53 -5 -3 -8 -34 -7 -69 l2 -65 -37 -11 c-20
-6 -56 -30 -80 -53 -24 -24 -41 -35 -37 -25 4 11 3 16 -4 12 -5 -4 -7 -14 -4
-24 3 -9 -1 -26 -9 -37 -14 -18 -15 -17 -11 16 3 19 9 136 15 260 6 124 13
255 16 293 6 59 8 65 20 50 12 -17 13 -17 14 -1 0 9 -4 20 -10 23 -5 3 -10 10
-10 16 0 11 46 12 53 2 2 -5 2 -2 1 5 -2 6 5 12 16 12 11 0 21 6 22 13 2 19 5
77 7 131 1 39 4 47 17 42 9 -3 100 -6 202 -7z m3902 1 c0 -6 -33 -10 -77 -11
-43 0 -115 -4 -161 -8 -46 -3 -86 -3 -88 1 -7 11 -16 10 146 18 80 3 153 7
163 8 9 1 17 -2 17 -8z m75 0 c-3 -5 -17 -10 -31 -10 -13 0 -24 5 -24 10 0 6
14 10 31 10 17 0 28 -4 24 -10z m60 0 c-3 -5 -12 -7 -20 -3 -21 7 -19 13 6 13
11 0 18 -4 14 -10z m-3062 -7 c-7 -2 -21 -2 -30 0 -10 3 -4 5 12 5 17 0 24 -2
18 -5z m382 -27 c16 -10 24 -28 28 -63 3 -26 40 -316 81 -643 74 -587 97 -808
76 -745 -19 56 -205 1413 -195 1423 2 3 0 11 -6 18 -8 9 -18 10 -36 3 -25 -9
-47 -4 -39 10 8 13 69 11 91 -3z m2190 4 c3 -5 1 -10 -4 -10 -6 0 -11 5 -11
10 0 6 2 10 4 10 3 0 8 -4 11 -10z m473 -2 c-3 -9 -40 -14 -128 -16 -150 -3
-151 11 -2 19 59 3 113 6 120 7 8 1 12 -4 10 -10z m-308 -12 c0 -3 -4 -8 -10
-11 -5 -3 -10 -1 -10 4 0 6 5 11 10 11 6 0 10 -2 10 -4z m-6269 -53 c35 -37
23 -37 -18 0 -20 18 -30 37 -20 37 2 0 19 -16 38 -37z m1169 27 c0 -5 -2 -10
-4 -10 -3 0 -8 5 -11 10 -3 6 -1 10 4 10 6 0 11 -4 11 -10z m-230 -370 c-1
-230 -5 -358 -11 -354 -6 3 -7 -5 -3 -23 6 -24 5 -26 -8 -16 -18 15 -32 5 -17
-13 7 -8 6 -14 -2 -20 -7 -4 -10 -3 -7 2 2 5 -7 20 -20 34 l-25 25 5 -27 c6
-33 -14 -38 -44 -11 -17 15 -18 15 -18 -13 0 -21 -3 -25 -9 -15 -8 13 -12 13
-27 0 -13 -11 -18 -11 -21 -1 -5 13 -73 17 -73 3 0 -5 7 -14 15 -21 17 -14 20
-30 5 -30 -6 0 -15 11 -22 25 -8 19 -18 24 -43 23 -28 -1 -32 -4 -27 -22 5
-20 5 -20 -12 -3 -23 23 -34 22 -38 -5 -2 -17 -9 -22 -24 -20 -12 2 -24 -3
-26 -10 -8 -19 80 -18 92 2 8 13 10 12 10 -2 0 -10 6 -18 13 -18 9 0 9 -2 -1
-9 -7 -4 -24 -6 -38 -3 -19 3 -24 0 -24 -15 0 -28 -10 -34 -27 -17 -9 8 -18
12 -21 9 -4 -3 0 -10 7 -14 10 -6 1 -16 -31 -35 -25 -14 -49 -26 -54 -26 -16
-1 -120 -56 -149 -79 -30 -23 -45 -16 -45 21 0 9 -19 37 -42 63 -34 37 -51 48
-84 52 -39 5 -41 7 -39 37 3 37 -10 74 -35 101 -16 18 -19 42 -22 205 l-3 185
57 5 c98 9 122 50 123 207 0 42 3 59 11 53 6 -6 8 -31 3 -67 -5 -43 -3 -62 7
-74 20 -22 17 -31 -6 -24 -14 4 -18 2 -15 -7 8 -20 38 -36 65 -34 21 1 25 6
23 31 -2 28 -2 29 7 6 7 -15 15 -21 25 -17 9 3 18 -1 22 -10 5 -13 7 -13 14
-2 6 9 9 7 9 -9 0 -26 8 -27 65 -12 58 15 105 38 112 55 4 11 9 12 19 3 11 -9
14 -8 14 4 0 18 47 50 60 42 6 -3 10 1 10 9 0 9 6 16 14 16 8 0 18 9 21 20 4
11 11 18 16 14 6 -3 13 3 16 15 3 12 12 21 20 21 8 0 12 4 9 9 -8 12 31 44 43
36 6 -3 15 4 20 17 8 18 10 19 10 5 1 -10 6 -15 12 -11 6 3 8 15 6 26 -4 15
-3 17 8 8 7 -6 17 -10 21 -9 5 1 21 1 37 0 20 -1 27 -6 27 -21 0 -21 -15 -27
-25 -10 -3 6 -18 10 -33 9 -15 0 -21 -3 -13 -6 8 -3 25 -18 37 -32 13 -14 24
-20 24 -13 0 7 5 10 10 7 6 -4 11 11 12 37 l1 43 7 -45 c6 -41 7 -39 8 28 1
39 4 72 7 72 3 0 5 -162 5 -360z m5674 251 c4 -44 4 -48 -3 -21 -13 53 -23
142 -11 106 5 -15 11 -53 14 -85z m-7267 46 c49 -61 47 -80 -3 -22 -19 22 -42
48 -51 58 -13 14 -14 17 -2 16 8 0 33 -23 56 -52z m1824 38 c0 -5 -9 -11 -21
-13 -15 -3 -18 1 -14 13 7 17 35 17 35 0z m4893 -1 c9 -24 7 -28 -9 -14 -17
14 -20 30 -6 30 5 0 12 -7 15 -16z m-4974 -24 c0 -5 -5 -10 -11 -10 -5 0 -7 5
-4 10 3 6 8 10 11 10 2 0 4 -4 4 -10z m115 -11 c12 -18 -3 -22 -20 -5 -14 14
-14 16 -1 16 8 0 18 -5 21 -11z m-3119 -46 c-7 -7 -26 7 -26 19 0 6 6 6 15 -2
9 -7 13 -15 11 -17z m2964 17 c12 -8 11 -10 -7 -10 -13 0 -23 5 -23 10 0 13
11 13 30 0z m-895 -11 c10 -15 3 -19 -40 -26 -36 -6 -37 -5 -26 16 12 22 55
29 66 10z m-1399 -36 c-7 -7 -26 7 -26 19 0 6 6 6 15 -2 9 -7 13 -15 11 -17z
m2294 17 c12 -8 11 -10 -7 -10 -13 0 -23 5 -23 10 0 13 11 13 30 0z m-712 -35
c-3 -3 -9 2 -12 12 -6 14 -5 15 5 6 7 -7 10 -15 7 -18z m4750 -68 c4 -21 -25
-34 -40 -19 -8 8 -8 16 2 27 16 19 34 15 38 -8z m-1222 -64 c7 -49 9 -54 14
-28 4 20 13 -21 29 -130 41 -286 119 -888 145 -1120 17 -148 51 -427 67 -558
6 -49 9 -91 6 -93 -3 -3 -12 14 -21 38 -17 47 -44 228 -106 708 -22 173 -65
502 -95 730 -30 228 -57 436 -61 463 -4 29 -2 47 4 47 6 0 14 -26 18 -57z
m-3553 17 c-3 -11 -9 -20 -14 -20 -5 0 -9 9 -9 20 0 11 6 20 14 20 9 0 12 -7
9 -20z m24 -12 c-3 -8 -6 -5 -6 6 -1 11 2 17 5 13 3 -3 4 -12 1 -19z m2957
-30 c24 -119 116 -617 127 -683 6 -44 15 -86 19 -94 9 -18 31 -20 208 -24 149
-4 161 -7 162 -49 0 -22 12 -22 -197 -1 -122 12 -173 20 -173 29 0 7 -4 14 -9
16 -6 2 -19 59 -31 128 -33 198 -120 652 -130 683 -7 20 -6 27 4 27 8 0 16
-15 20 -32z m-3044 13 c0 -6 -4 -13 -10 -16 -5 -3 -10 1 -10 9 0 9 5 16 10 16
6 0 10 -4 10 -9z m-425 -21 c11 -5 15 -9 9 -9 -6 -1 -11 -7 -12 -13 0 -7 -3
-85 -7 -173 -9 -214 -8 -208 -35 -222 -13 -6 -36 -23 -51 -37 l-26 -25 -10 22
c-10 21 -11 20 -18 -11 -4 -20 -15 -37 -28 -42 l-22 -9 21 0 c12 -1 25 6 28
15 4 9 9 15 11 12 3 -3 -1 -18 -10 -34 -19 -37 -19 -117 0 -154 20 -38 9 -38
-43 0 -30 21 -54 30 -84 31 -24 1 -35 3 -25 6 9 2 17 13 17 24 0 11 7 19 18
20 16 1 16 2 0 6 -10 2 -18 13 -18 23 0 10 -4 21 -10 25 -5 3 -6 13 -3 21 3 8
1 25 -5 37 -31 65 -30 60 -38 299 l-6 187 48 4 c96 7 279 5 299 -3z m3588 -37
c4 -27 36 -203 71 -393 35 -190 63 -346 61 -348 -6 -7 -34 11 -40 26 -3 9 -28
138 -55 287 -83 461 -83 457 -68 466 22 14 25 11 31 -38z m-4928 -23 c3 -5 20
-10 36 -10 19 0 32 -6 36 -17 4 -10 17 -29 30 -43 27 -29 28 -36 8 -44 -8 -3
-21 -20 -29 -38 -11 -26 -15 -29 -15 -12 -1 12 6 27 14 34 21 17 19 22 -15 56
-16 16 -30 34 -30 41 0 7 -6 10 -14 7 -8 -3 -24 4 -35 15 -15 15 -17 21 -7 21
8 0 18 -4 21 -10z m-432 -17 c-18 -2 -48 -2 -65 0 -18 2 -4 4 32 4 36 0 50 -2
33 -4z m437 -37 c0 -3 -4 -8 -10 -11 -5 -3 -10 -1 -10 4 0 6 5 11 10 11 6 0
10 -2 10 -4z m2595 -27 c10 -15 -1 -23 -20 -15 -9 3 -13 10 -10 16 8 13 22 13
30 -1z m-2515 -133 c0 -3 -4 -8 -10 -11 -5 -3 -10 -1 -10 4 0 6 5 11 10 11 6
0 10 -2 10 -4z m7557 -208 c-3 -8 -6 -5 -6 6 -1 11 2 17 5 13 3 -3 4 -12 1
-19z m-5487 -18 c13 -8 12 -10 -2 -10 -10 0 -18 -5 -18 -11 0 -5 -4 -8 -10 -4
-9 6 -3 35 9 35 3 0 13 -5 21 -10z m-74 -37 c-11 -11 -19 6 -11 24 8 17 8 17
12 0 3 -10 2 -21 -1 -24z m5589 -52 c-8 -8 -13 3 -19 49 l-6 45 15 -45 c8 -24
12 -46 10 -49z m-5375 59 c0 -5 -10 -10 -22 -9 -22 0 -22 1 -3 9 11 5 21 9 23
9 1 1 2 -3 2 -9z m40 0 c0 -5 -4 -10 -10 -10 -5 0 -10 5 -10 10 0 6 5 10 10
10 6 0 10 -4 10 -10z m-2175 -40 c3 -5 1 -10 -4 -10 -6 0 -11 5 -11 10 0 6 2
10 4 10 3 0 8 -4 11 -10z m1275 -5 c0 -8 -4 -15 -10 -15 -5 0 -10 7 -10 15 0
8 5 15 10 15 6 0 10 -7 10 -15z m730 11 c0 -2 -7 -6 -15 -10 -8 -3 -15 -1 -15
4 0 6 7 10 15 10 8 0 15 -2 15 -4z m-80 -26 c0 -5 -4 -10 -10 -10 -5 0 -10 5
-10 10 0 6 5 10 10 10 6 0 10 -4 10 -10z m-1325 -10 c3 -5 1 -10 -4 -10 -6 0
-11 5 -11 10 0 6 2 10 4 10 3 0 8 -4 11 -10z m-1295 -10 c0 -5 -2 -10 -4 -10
-3 0 -8 5 -11 10 -3 6 -1 10 4 10 6 0 11 -4 11 -10z m8549 -6 c10 -9 -10 -13
-94 -18 -58 -3 -76 -2 -50 3 31 6 18 8 -63 10 -61 0 -101 5 -97 10 5 9 294 3
304 -5z m41 6 c0 -5 -4 -10 -10 -10 -5 0 -10 5 -10 10 0 6 5 10 10 10 6 0 10
-4 10 -10z m-6625 -11 c11 -17 -1 -21 -15 -4 -8 9 -8 15 -2 15 6 0 14 -5 17
-11z m2205 -14 c0 -8 -7 -15 -16 -15 -14 0 -14 3 -4 15 7 8 14 15 16 15 2 0 4
-7 4 -15z m1108 -121 c42 -5 64 -26 46 -44 -5 -4 -61 0 -126 10 -106 17 -158
32 -158 46 0 6 160 -2 238 -12z m-3073 -132 c-7 -7 -55 27 -55 39 0 5 13 0 30
-12 16 -13 28 -25 25 -27z m143 32 c32 -22 27 -34 -16 -34 -26 0 -45 7 -56 19
-17 19 -17 20 6 24 41 8 43 7 66 -9z m-488 -11 c0 -5 -45 -8 -100 -9 -55 0
-94 3 -88 8 16 10 188 11 188 1z m-280 -63 c0 -5 -2 -10 -4 -10 -3 0 -8 5 -11
10 -3 6 -1 10 4 10 6 0 11 -4 11 -10z m95 -190 c4 -6 3 -10 -2 -9 -20 3 -27
-2 -13 -11 13 -8 13 -10 -1 -10 -20 0 -33 27 -16 34 19 7 25 7 32 -4z m1335
-94 c0 -2 -8 -10 -17 -17 -16 -13 -17 -12 -4 4 13 16 21 21 21 13z m934 -51
c26 0 32 -21 9 -33 -28 -15 -213 -26 -213 -13 0 18 34 30 104 37 37 4 66 12
66 18 0 7 3 7 8 1 4 -5 16 -10 26 -10z m-1687 -72 c-3 -10 -5 -2 -5 17 0 19 2
27 5 18 2 -10 2 -26 0 -35z m0 -175 c-3 -7 -5 -2 -5 12 0 14 2 19 5 13 2 -7 2
-19 0 -25z m22 -91 c-7 -29 -12 -56 -11 -60 1 -5 -2 -6 -8 -2 -12 8 -13 55 -1
55 5 0 13 19 17 43 4 23 9 36 11 29 3 -7 -1 -36 -8 -65z m-768 -17 c5 0 9 -5
9 -10 0 -6 -12 -8 -27 -4 -23 4 -25 3 -13 -6 13 -10 12 -11 -3 -6 -10 3 -23 6
-28 6 -5 0 -9 4 -9 9 0 11 30 20 48 15 8 -2 18 -4 23 -4z m49 -6 c0 -8 -4 -12
-10 -9 -5 3 -10 10 -10 16 0 5 5 9 10 9 6 0 10 -7 10 -16z m55 -14 c4 -6 -5
-10 -19 -10 -14 0 -26 5 -26 10 0 6 9 10 19 10 11 0 23 -4 26 -10z m-1891 -9
c3 -4 -6 -6 -19 -3 -14 2 -25 6 -25 8 0 8 39 4 44 -5z m1591 -1 c-47 -9 -684
-34 -691 -27 -10 9 442 34 636 34 72 1 85 -1 55 -7z m-1451 -12 c67 -9 84 -14
66 -19 -44 -12 -94 -8 -140 11 -54 23 -44 24 74 8z m576 -22 c0 -8 -71 -12
-76 -4 -3 4 13 8 35 8 23 0 41 -2 41 -4z m1470 -6 c0 -5 -7 -10 -16 -10 -8 0
-12 5 -9 10 3 6 10 10 16 10 5 0 9 -4 9 -10z m150 -20 c0 -17 -7 -20 -45 -20
-48 0 -48 0 -39 24 4 11 19 16 45 16 32 0 39 -3 39 -20z m-110 0 c0 -5 -2 -10
-4 -10 -3 0 -8 5 -11 10 -3 6 -1 10 4 10 6 0 11 -4 11 -10z m-2217 -51 c37 -6
70 -15 73 -20 3 -5 16 -9 29 -9 17 0 23 -5 22 -19 0 -11 -5 -17 -9 -15 -10 6
-10 -9 -1 -72 7 -46 8 -47 14 -19 6 26 7 23 8 -18 1 -46 0 -48 -21 -41 -13 4
-26 11 -29 16 -4 7 -9 7 -13 0 -6 -11 -145 12 -155 26 -6 7 -72 29 -121 39
-37 7 -56 67 -29 94 11 11 19 23 19 28 0 6 5 13 11 16 6 4 9 0 7 -10 -2 -10 3
-20 10 -22 6 -3 12 2 12 11 0 24 19 19 30 -6 9 -23 9 -23 9 3 1 43 -5 42 134
18z m2304 -5 c-3 -3 -12 -4 -19 -1 -8 3 -5 6 6 6 11 1 17 -2 13 -5z m43 2 c0
-11 -19 -15 -25 -6 -3 5 1 10 9 10 9 0 16 -2 16 -4z m-585 -186 c-45 -12 -165
-12 -165 0 0 6 38 10 98 9 66 -1 87 -4 67 -9z m-798 -6 c-3 -3 -12 -4 -19 -1
-8 3 -5 6 6 6 11 1 17 -2 13 -5z m503 -4 c0 -5 -10 -9 -22 -8 -13 0 -133 -2
-268 -5 -135 -4 -240 -4 -234 -1 11 5 299 19 452 22 42 1 72 -2 72 -8z m-850
-4 c0 -2 -9 -6 -20 -9 -11 -3 -20 -1 -20 4 0 5 9 9 20 9 11 0 20 -2 20 -4z
m88 -3 c-10 -2 -26 -2 -35 0 -10 3 -2 5 17 5 19 0 27 -2 18 -5z"/>
<path d="M8561 6254 c0 -11 3 -14 6 -6 3 7 2 16 -1 19 -3 4 -6 -2 -5 -13z"/>
<path d="M8591 5937 c0 -16 -5 -26 -11 -22 -5 3 -10 -3 -10 -14 0 -12 4 -21 9
-21 4 0 13 -15 19 -32 l10 -33 0 30 c1 43 -15 128 -17 92z"/>
<path d="M8596 5787 c3 -10 9 -15 12 -12 3 3 0 11 -7 18 -10 9 -11 8 -5 -6z"/>
<path d="M8601 5694 c0 -11 3 -14 6 -6 3 7 2 16 -1 19 -3 4 -6 -2 -5 -13z"/>
<path d="M8600 5580 c0 -5 5 -10 10 -10 6 0 10 5 10 10 0 6 -4 10 -10 10 -5 0
-10 -4 -10 -10z"/>
<path d="M7329 6215 c-6 -40 -4 -53 7 -43 3 3 4 23 2 44 l-3 39 -6 -40z"/>
<path d="M7080 6220 c0 -5 5 -10 11 -10 5 0 7 5 4 10 -3 6 -8 10 -11 10 -2 0
-4 -4 -4 -10z"/>
<path d="M6055 6090 c-3 -5 -1 -10 4 -10 6 0 11 5 11 10 0 6 -2 10 -4 10 -3 0
-8 -4 -11 -10z"/>
<path d="M6821 6074 c0 -11 3 -14 6 -6 3 7 2 16 -1 19 -3 4 -6 -2 -5 -13z"/>
<path d="M6263 5855 c0 -27 2 -38 4 -22 2 15 2 37 0 50 -2 12 -4 0 -4 -28z"/>
<path d="M5480 5791 c0 -6 5 -13 12 -17 6 -4 8 -3 4 4 -3 5 0 13 6 15 8 3 6 6
-4 6 -10 1 -18 -3 -18 -8z"/>
<path d="M5558 5773 c7 -3 16 -2 19 1 4 3 -2 6 -13 5 -11 0 -14 -3 -6 -6z"/>
<path d="M5590 5769 c0 -5 5 -7 10 -4 6 3 10 8 10 11 0 2 -4 4 -10 4 -5 0 -10
-5 -10 -11z"/>
<path d="M5490 5745 c0 -8 4 -15 10 -15 5 0 7 7 4 15 -4 8 -8 15 -10 15 -2 0
-4 -7 -4 -15z"/>
<path d="M5640 5713 c0 -5 -19 -9 -42 -11 -24 -2 -47 -8 -53 -14 -10 -10 53
-5 113 9 27 6 29 23 2 23 -11 0 -20 -3 -20 -7z"/>
<path d="M5510 5634 c0 -6 3 -25 6 -41 l6 -30 56 10 c32 5 123 6 204 3 81 -3
149 -2 152 3 3 4 -70 18 -162 31 -92 13 -188 26 -214 30 -34 5 -48 3 -48 -6z
m78 -51 c-10 -2 -26 -2 -35 0 -10 3 -2 5 17 5 19 0 27 -2 18 -5z"/>
<path d="M5961 5576 c8 -8 284 -44 406 -52 51 -4 93 -10 93 -13 0 -4 8 -7 18
-8 9 0 100 -10 201 -22 101 -11 186 -21 188 -21 2 0 2 -9 -2 -19 -3 -11 -1
-22 5 -26 18 -11 10 -25 -15 -25 -14 0 -25 -4 -25 -10 0 -5 9 -10 20 -10 24 0
42 -32 39 -68 -2 -15 3 -37 10 -50 12 -23 7 -47 -10 -37 -13 8 -11 -13 6 -60
19 -51 19 -60 0 -45 -12 10 -15 9 -15 -6 1 -21 20 -51 33 -52 14 -1 21 -12 9
-12 -7 0 -12 -4 -12 -10 0 -17 28 -11 33 8 4 14 6 14 12 -5 4 -13 15 -23 24
-22 10 0 11 2 4 6 -7 2 -13 9 -13 14 0 6 5 7 10 4 6 -4 10 42 10 131 0 112 -3
139 -15 148 -17 12 -26 62 -16 86 3 9 8 -1 12 -25 6 -37 6 -36 8 17 1 50 -1
57 -16 52 -17 -5 -17 -5 0 9 22 18 50 14 -473 72 -493 55 -537 60 -529 51z
m1004 -343 c-4 -16 -10 -22 -15 -17 -6 6 -5 25 2 49 10 34 13 36 16 16 2 -12
1 -34 -3 -48z m-15 -71 c0 -15 -2 -15 -10 -2 -13 20 -13 33 0 25 6 -3 10 -14
10 -23z m20 -87 c0 -8 -4 -15 -10 -15 -5 0 -10 7 -10 15 0 8 5 15 10 15 6 0
10 -7 10 -15z"/>
<path d="M6790 5423 c1 -21 19 -35 36 -29 18 7 18 8 0 22 -22 15 -36 18 -36 7z"/>
<path d="M6778 5353 c7 -3 16 -2 19 1 4 3 -2 6 -13 5 -11 0 -14 -3 -6 -6z"/>
<path d="M6590 5304 c-87 -26 -97 -30 -88 -39 3 -3 52 10 109 29 120 40 105
47 -21 10z"/>
<path d="M6400 5259 l-35 -20 35 6 c36 6 57 19 43 28 -4 3 -24 -4 -43 -14z"/>
<path d="M4420 5246 c0 -9 5 -16 10 -16 6 0 10 4 10 9 0 6 -4 13 -10 16 -5 3
-10 -1 -10 -9z"/>
<path d="M4696 5231 c-4 -7 -5 -15 -2 -18 9 -9 19 4 14 18 -4 11 -6 11 -12 0z"/>
<path d="M6250 5214 c-25 -7 -60 -14 -77 -14 -18 0 -33 -4 -33 -10 0 -5 -20
-15 -45 -21 -25 -6 -45 -15 -45 -20 0 -11 16 -11 54 0 17 5 65 20 106 32 41
13 82 29 90 36 18 16 7 16 -50 -3z"/>
<path d="M4417 5173 c-9 -18 -7 -83 3 -83 5 0 10 20 10 45 0 43 -4 54 -13 38z"/>
<path d="M5994 5136 c-10 -8 -16 -17 -13 -20 9 -9 59 11 59 24 0 14 -23 12
-46 -4z"/>
<path d="M4241 5124 c0 -11 3 -14 6 -6 3 7 2 16 -1 19 -3 4 -6 -2 -5 -13z"/>
<path d="M5728 5133 c-37 -9 -7 -78 31 -71 20 4 28 58 9 69 -7 5 -15 8 -18 8
-3 -1 -13 -3 -22 -6z"/>
<path d="M5865 5110 c-4 -6 -12 -10 -18 -9 -34 4 -39 -1 -33 -33 4 -18 6 -53
5 -78 0 -25 3 -95 6 -157 6 -86 11 -113 22 -118 14 -5 15 15 9 160 -6 143 -4
166 9 171 8 4 15 12 15 20 0 8 6 14 14 14 7 0 19 6 25 14 9 11 7 15 -11 20
-31 8 -36 8 -43 -4z"/>
<path d="M4472 5080 c0 -19 2 -27 5 -17 2 9 2 25 0 35 -3 9 -5 1 -5 -18z"/>
<path d="M4410 5055 c0 -8 2 -15 4 -15 2 0 6 7 10 15 3 8 1 15 -4 15 -6 0 -10
-7 -10 -15z"/>
<path d="M6881 5044 c0 -20 6 -38 19 -49 17 -15 20 -16 20 -3 0 9 -6 21 -14
28 -8 6 -17 21 -19 33 -3 16 -5 13 -6 -9z"/>
<path d="M7390 5015 c0 -8 5 -15 10 -15 6 0 10 7 10 15 0 8 -4 15 -10 15 -5 0
-10 -7 -10 -15z"/>
<path d="M4661 5004 c0 -11 3 -14 6 -6 3 7 2 16 -1 19 -3 4 -6 -2 -5 -13z"/>
<path d="M7403 4880 c0 -63 3 -169 7 -235 l6 -120 1 95 c0 52 -3 158 -6 235
l-8 140 0 -115z"/>
<path d="M6921 4941 c-8 -5 -11 -16 -8 -25 4 -9 2 -16 -3 -16 -6 0 -10 -9 -10
-19 0 -14 -16 -27 -54 -45 -54 -25 -199 -72 -269 -86 -47 -9 -51 -13 -42 -41
6 -19 9 -20 19 -8 14 18 53 36 95 43 l34 6 -7 -37 c-3 -21 -6 -46 -6 -57 0
-15 -3 -16 -14 -7 -10 9 -15 8 -19 -3 -4 -9 -2 -18 2 -21 5 -2 11 -19 14 -37
2 -18 11 -57 19 -86 18 -61 20 -58 -77 -89 -84 -27 -85 -27 -85 -7 0 12 -7 15
-27 11 -51 -8 -427 -98 -435 -103 -11 -7 -9 32 10 180 l17 130 80 17 c43 10
83 15 88 12 4 -2 13 0 20 6 7 5 33 14 57 20 54 12 60 6 60 -68 0 -72 11 -59
13 16 2 56 3 59 37 75 19 9 43 19 53 22 10 3 16 10 13 15 -6 10 -121 -16 -288
-65 -136 -40 -128 -38 -128 -19 0 20 22 28 160 61 63 14 124 30 135 35 31 14
-33 2 -169 -32 -65 -16 -121 -29 -123 -29 -3 0 -3 37 0 83 6 81 6 81 -4 17
-18 -128 -18 -130 -37 -123 -9 4 -20 11 -24 17 -12 18 -15 5 -28 -104 -16
-130 -6 -400 15 -400 14 0 25 22 25 51 0 26 42 42 110 41 30 0 55 -1 55 -2 0
-1 16 -3 37 -4 20 -1 42 -7 50 -14 17 -14 59 -4 75 17 11 14 13 14 27 -4 9
-11 15 -33 13 -50 -2 -28 0 -30 35 -30 20 0 40 -4 45 -9 4 -5 3 -6 -4 -3 -6 4
-22 3 -35 -2 -19 -8 -12 -10 33 -10 l56 -1 -3 46 c-2 32 1 47 11 51 8 3 13 9
10 13 -3 5 -1 11 4 15 17 10 33 -35 29 -83 l-3 -47 155 -12 c85 -6 190 -12
233 -12 l78 -1 -5 58 c-3 31 -8 129 -11 217 -7 208 -14 373 -21 460 -4 57 -9
71 -22 71 -9 1 -24 4 -32 7 -8 4 -21 3 -29 -2z m-151 -197 c0 -8 -9 -14 -20
-14 -13 0 -25 -11 -34 -32 l-14 -33 -1 50 -1 51 35 -4 c21 -3 35 -10 35 -18z
m-30 -268 c0 -2 -7 -6 -15 -10 -8 -3 -15 -1 -15 4 0 6 7 10 15 10 8 0 15 -2
15 -4z"/>
<path d="M5376 4890 c3 -30 10 -62 14 -69 10 -20 0 78 -11 104 -6 12 -7 -1 -3
-35z"/>
<path d="M5988 4904 c3 -19 7 -22 13 -12 13 20 11 38 -5 38 -9 0 -12 -8 -8
-26z"/>
<path d="M6047 4903 c-12 -12 -7 -22 8 -17 8 4 15 10 15 15 0 11 -14 12 -23 2z"/>
<path d="M4758 4598 c3 -295 5 -329 21 -312 6 5 6 56 1 119 -5 61 -9 194 -9
298 -1 103 -4 187 -8 187 -5 0 -7 -132 -5 -292z"/>
<path d="M6830 4870 c-12 -8 -10 -9 7 -7 12 2 26 6 29 10 11 11 -19 8 -36 -3z"/>
<path d="M6745 4840 c-13 -5 -14 -9 -5 -9 8 0 24 4 35 9 13 5 14 9 5 9 -8 0
-24 -4 -35 -9z"/>
<path d="M6675 4820 c-13 -5 -14 -9 -5 -9 8 0 24 4 35 9 13 5 14 9 5 9 -8 0
-24 -4 -35 -9z"/>
<path d="M6598 4793 c7 -3 16 -2 19 1 4 3 -2 6 -13 5 -11 0 -14 -3 -6 -6z"/>
<path d="M6475 4780 c4 -6 11 -8 16 -5 14 9 11 15 -7 15 -8 0 -12 -5 -9 -10z"/>
<path d="M6540 4780 c-18 -12 -2 -12 25 0 13 6 15 9 5 9 -8 0 -22 -4 -30 -9z"/>
<path d="M6415 4770 c-13 -5 -14 -9 -5 -9 8 0 24 4 35 9 13 5 14 9 5 9 -8 0
-24 -4 -35 -9z"/>
<path d="M5455 4640 c0 -25 4 -30 20 -28 14 2 20 11 20 28 0 17 -6 26 -20 28
-16 2 -20 -3 -20 -28z"/>
<path d="M4154 4475 c0 -49 1 -71 3 -48 2 23 2 64 0 90 -2 26 -3 8 -3 -42z"/>
<path d="M8116 4484 c-21 -21 -17 -63 7 -78 15 -9 21 -7 33 8 15 21 11 52 -11
74 -10 11 -15 10 -29 -4z m29 -35 c8 -23 1 -34 -14 -24 -13 8 -15 45 -2 45 5
0 13 -9 16 -21z"/>
<path d="M5721 4474 c0 -11 3 -14 6 -6 3 7 2 16 -1 19 -3 4 -6 -2 -5 -13z"/>
<path d="M7423 4365 c0 -22 2 -30 4 -17 2 12 2 30 0 40 -3 9 -5 -1 -4 -23z"/>
<path d="M5955 4348 c-12 -49 -10 -161 3 -165 9 -4 12 19 12 91 0 95 -5 117
-15 74z"/>
<path d="M6148 4133 c7 -3 16 -2 19 1 4 3 -2 6 -13 5 -11 0 -14 -3 -6 -6z"/>
<path d="M3574 5937 c-3 -9 -12 -17 -20 -17 -8 0 -14 -4 -14 -10 0 -5 7 -10
15 -10 8 0 15 -4 15 -10 0 -5 -5 -10 -11 -10 -5 0 -7 -5 -3 -11 5 -8 10 -6 16
5 6 10 7 20 4 23 -3 3 2 12 12 19 13 10 14 15 5 25 -10 10 -14 9 -19 -4z"/>
<path d="M3132 3876 c-29 -6 -53 -15 -52 -19 0 -4 0 -9 0 -11 0 -6 131 31 138
39 8 7 -25 4 -86 -9z"/>
<path d="M3010 3840 c-13 -8 -13 -10 2 -10 9 0 20 5 23 10 8 13 -5 13 -25 0z"/>
<path d="M2630 3290 c0 -6 7 -10 15 -10 8 0 15 2 15 4 0 2 -7 6 -15 10 -8 3
-15 1 -15 -4z"/>
<path d="M2700 3180 c0 -5 5 -10 11 -10 5 0 7 5 4 10 -3 6 -8 10 -11 10 -2 0
-4 -4 -4 -10z"/>
<path d="M3597 3069 c7 -7 15 -10 18 -7 3 3 -2 9 -12 12 -14 6 -15 5 -6 -5z"/>
<path d="M3730 2875 c0 -8 5 -15 10 -15 6 0 10 7 10 15 0 8 -4 15 -10 15 -5 0
-10 -7 -10 -15z"/>
<path d="M2103 4710 c0 -25 2 -35 4 -22 2 12 2 32 0 45 -2 12 -4 2 -4 -23z"/>
<path d="M1830 3056 c0 -9 7 -16 16 -16 9 0 14 5 12 12 -6 18 -28 21 -28 4z"/>
<path d="M1869 3013 c-13 -16 -12 -17 4 -4 9 7 17 15 17 17 0 8 -8 3 -21 -13z"/>
<path d="M7444 3705 c0 -66 1 -92 3 -57 2 34 2 88 0 120 -2 31 -3 3 -3 -63z"/>
<path d="M7709 3760 c-13 -10 -19 -19 -12 -20 6 0 15 5 18 11 4 6 17 14 29 19
15 6 16 9 5 9 -9 1 -27 -8 -40 -19z"/>
<path d="M8252 3725 c0 -11 3 -29 8 -40 11 -25 11 1 0 35 -6 20 -8 21 -8 5z"/>
<path d="M8401 3504 c0 -11 3 -14 6 -6 3 7 2 16 -1 19 -3 4 -6 -2 -5 -13z"/>
<path d="M8167 3643 c-4 -3 -7 -11 -7 -17 0 -6 5 -5 12 2 6 6 9 14 7 17 -3 3
-9 2 -12 -2z"/>
<path d="M6023 3663 c15 -2 39 -2 55 0 15 2 2 4 -28 4 -30 0 -43 -2 -27 -4z"/>
<path d="M3970 2601 c0 -7 -6 -11 -14 -8 -10 4 -13 1 -9 -9 4 -11 8 -12 20 -3
12 11 13 8 8 -13 -4 -15 -2 -29 4 -32 14 -9 15 43 1 64 -7 12 -10 12 -10 1z"/>
<path d="M3782 2482 c-17 -37 -15 -52 7 -52 17 0 19 5 14 38 -3 20 -6 38 -7
39 -1 1 -7 -10 -14 -25z"/>
<path d="M3860 2496 c0 -2 11 -6 25 -8 14 -3 25 -1 25 3 0 5 -11 9 -25 9 -14
0 -25 -2 -25 -4z"/>
<path d="M3870 2460 c0 -5 5 -10 11 -10 5 0 7 5 4 10 -3 6 -8 10 -11 10 -2 0
-4 -4 -4 -10z"/>
<path d="M3800 2371 c0 -25 6 -27 13 -6 4 8 2 17 -3 20 -6 4 -10 -3 -10 -14z"/>
<path d="M3966 2365 c4 -8 8 -15 10 -15 2 0 4 7 4 15 0 8 -4 15 -10 15 -5 0
-7 -7 -4 -15z"/>
<path d="M3760 2329 c0 -16 5 -20 20 -16 16 4 20 0 20 -19 0 -13 5 -24 11 -24
6 0 9 14 7 33 -2 17 -8 32 -15 32 -6 0 -15 3 -19 8 -14 13 -24 7 -24 -14z"/>
<path d="M3730 2300 c0 -5 5 -10 10 -10 6 0 10 5 10 10 0 6 -4 10 -10 10 -5 0
-10 -4 -10 -10z"/>
<path d="M4325 1880 c-3 -5 3 -10 15 -10 12 0 18 5 15 10 -3 6 -10 10 -15 10
-5 0 -12 -4 -15 -10z"/>
<path d="M4500 1781 c0 -5 7 -11 15 -15 9 -3 15 0 15 9 0 8 -7 15 -15 15 -8 0
-15 -4 -15 -9z"/>
<path d="M4592 1618 c6 -18 28 -21 28 -4 0 9 -7 16 -16 16 -9 0 -14 -5 -12
-12z"/>
<path d="M5069 2628 c-2 -24 -2 -97 1 -163 l6 -120 2 163 c2 156 -2 208 -9
120z"/>
<path d="M5073 2250 c0 -30 2 -43 4 -27 2 15 2 39 0 55 -2 15 -4 2 -4 -28z"/>
<path d="M5071 2174 c0 -11 3 -14 6 -6 3 7 2 16 -1 19 -3 4 -6 -2 -5 -13z"/>
<path d="M4980 2010 c0 -22 1 -23 24 -14 23 9 20 34 -4 34 -13 0 -20 -7 -20
-20z"/>
<path d="M3601 2484 c0 -11 3 -14 6 -6 3 7 2 16 -1 19 -3 4 -6 -2 -5 -13z"/>
<path d="M3571 2473 c7 -10 15 -20 16 -22 2 -2 3 5 3 17 0 14 -6 22 -16 22
-14 0 -15 -3 -3 -17z"/>
<path d="M2865 2300 c-3 -5 -1 -10 4 -10 6 0 11 5 11 10 0 6 -2 10 -4 10 -3 0
-8 -4 -11 -10z"/>
<path d="M3466 1932 c-3 -6 -1 -14 5 -17 14 -9 20 -2 10 14 -6 8 -11 9 -15 3z"/>
<path d="M3250 1895 c0 -8 3 -15 8 -16 4 0 18 -2 30 -5 14 -2 22 0 20 7 -2 6
-8 11 -13 11 -6 0 -18 4 -27 9 -14 7 -18 6 -18 -6z"/>
<path d="M3330 1888 c0 -17 2 -18 15 -8 8 7 15 14 15 15 0 2 -7 5 -15 9 -10 4
-15 -1 -15 -16z"/>
<path d="M3441 1884 c0 -11 3 -14 6 -6 3 7 2 16 -1 19 -3 4 -6 -2 -5 -13z"/>
<path d="M2755 1859 c-4 -6 -5 -12 -2 -15 2 -3 7 2 10 11 7 17 1 20 -8 4z"/>
<path d="M2800 1782 c0 -12 19 -26 26 -19 2 2 -2 10 -11 17 -9 8 -15 8 -15 2z"/>
<path d="M3108 1783 c7 -3 16 -2 19 1 4 3 -2 6 -13 5 -11 0 -14 -3 -6 -6z"/>
<path d="M3151 1740 c6 -16 15 -30 19 -30 5 0 4 14 -1 30 -6 17 -15 30 -19 30
-5 0 -4 -13 1 -30z"/>
<path d="M3100 1716 c0 -2 7 -7 16 -10 8 -3 12 -2 9 4 -6 10 -25 14 -25 6z"/>
<path d="M2320 1766 c0 -10 4 -15 9 -11 5 3 12 -3 14 -12 4 -15 5 -15 6 -2 0
9 -6 22 -14 29 -12 10 -15 9 -15 -4z"/>
<path d="M2635 620 c-3 -5 1 -10 9 -10 9 0 16 5 16 10 0 6 -4 10 -9 10 -6 0
-13 -4 -16 -10z"/>
<path d="M260 560 c0 -5 5 -10 10 -10 6 0 10 5 10 10 0 6 -4 10 -10 10 -5 0
-10 -4 -10 -10z"/>
<path d="M470 520 c0 -5 7 -7 15 -4 8 4 15 8 15 10 0 2 -7 4 -15 4 -8 0 -15
-4 -15 -10z"/>
<path d="M238 513 c7 -3 16 -2 19 1 4 3 -2 6 -13 5 -11 0 -14 -3 -6 -6z"/>
<path d="M8320 6655 c0 -21 43 -39 74 -31 17 4 26 13 26 26 0 17 -7 20 -50 20
-38 0 -50 -4 -50 -15z"/>
<path d="M8431 5301 c-9 -6 -10 -11 -2 -15 6 -4 21 0 33 8 21 15 21 16 3 16
-11 0 -26 -4 -34 -9z"/>
<path d="M8416 4395 c-9 -26 -7 -32 5 -12 6 10 9 21 6 23 -2 3 -7 -2 -11 -11z"/>
<path d="M837 290 c3 -11 8 -20 12 -20 4 0 7 9 8 20 1 11 -4 20 -12 20 -8 0
-11 -7 -8 -20z"/>
</g>
</svg>
